<?xml version="1.0" encoding="UTF-8"?>
<svg version="1.1" xmlns="http://www.w3.org/2000/svg" width="512" height="512">
<path d="M0 0 C1.26848187 -0.00668677 1.26848187 -0.00668677 2.56258965 -0.01350862 C3.49184824 -0.01332426 4.42110683 -0.01313989 5.37852478 -0.01294994 C6.36563005 -0.01662663 7.35273533 -0.02030332 8.36975288 -0.02409142 C11.69291317 -0.03514557 15.0160422 -0.03897508 18.33921814 -0.04278088 C20.71587219 -0.04904433 23.09252526 -0.05569103 25.46917725 -0.0626936 C32.61375643 -0.08193533 39.75833621 -0.09252529 46.90293407 -0.10142139 C50.26965616 -0.10580614 53.63637668 -0.11117258 57.00309753 -0.11641026 C68.1996681 -0.1334247 79.3962377 -0.14791688 90.59281921 -0.155159 C93.49835715 -0.15706882 96.40389508 -0.15898916 99.30943298 -0.16094494 C100.03157045 -0.16142868 100.75370792 -0.16191242 101.49772835 -0.16241082 C113.18486862 -0.1707036 124.87190629 -0.19602679 136.5590018 -0.22852562 C148.5655337 -0.26163959 160.57201356 -0.2796118 172.57859135 -0.28280324 C179.31666486 -0.28496468 186.05458889 -0.29365915 192.7926178 -0.31926441 C199.13572638 -0.34256554 205.47856646 -0.34676989 211.82170677 -0.33650303 C214.14563071 -0.33600802 216.46956795 -0.34231791 218.79345131 -0.35605907 C221.9755301 -0.37381664 225.15664934 -0.36665212 228.33872986 -0.35352612 C229.25014268 -0.36449536 230.1615555 -0.37546461 231.10058689 -0.38676625 C240.24740887 -0.29618761 248.58248392 2.54411473 255.86656189 8.13422108 C257.35156189 9.21703358 257.35156189 9.21703358 258.86656189 10.32172108 C266.92271711 17.1937695 271.41988413 27.8495625 272.86656189 38.13422108 C273.13725485 43.89739684 273.09998641 49.65123993 273.06187439 55.41937733 C273.05813831 57.08803099 273.05529415 58.75668686 273.05329895 60.42534351 C273.04570929 64.79007631 273.02610157 69.1546733 273.00389099 73.51935291 C272.98333133 77.98405591 272.97427571 82.44878113 272.96421814 86.91351795 C272.94285071 95.65381424 272.908772 104.3940007 272.86656189 113.13422108 C273.81345886 113.27593739 274.76035583 113.41765369 275.73594666 113.56366444 C283.34805985 114.95097696 289.58247825 122.00599547 293.86656189 128.13422108 C313.70544149 161.73970267 323.22666308 203.34403405 332.34764099 240.99353504 C332.86659267 243.13434806 333.38922507 245.27423656 333.91246033 247.41400623 C339.06913357 268.55225955 343.60511097 289.79871822 347.86656189 311.13422108 C349.51656189 310.80422108 351.16656189 310.47422108 352.86656189 310.13422108 C353.58579673 311.74192249 354.30502554 313.34962661 355.02423096 314.95734119 C355.68029534 316.42377326 356.33645766 317.8901615 356.9927063 319.35651112 C358.86029669 323.52994924 360.72606333 327.7041883 362.58872986 331.87982655 C366.22841896 340.03424502 369.87914724 348.18268796 373.59320068 356.30356312 C375.18363758 359.78266243 376.76576608 363.26551065 378.3473053 366.74866199 C379.10915572 368.42020185 379.87516128 370.08985422 380.64533997 371.75757313 C381.72176561 374.08943459 382.78386383 376.42733602 383.84312439 378.76703358 C384.32775398 379.80205006 384.32775398 379.80205006 384.82217407 380.85797596 C386.92621436 385.557662 386.92621436 385.557662 386.6505127 388.22240162 C385.21316819 391.72765116 381.21720124 392.66432585 377.91734314 394.08343983 C376.67628563 394.63815464 376.67628563 394.63815464 375.41015625 395.20407581 C372.67240706 396.42388783 369.9259619 397.62267554 367.17906189 398.82172108 C365.26584128 399.66951913 363.3532501 400.51873894 361.44126892 401.3693285 C357.50791411 403.11691688 353.57122825 404.85665352 349.63169861 406.59027576 C344.32552086 408.92757205 339.03270801 411.29350414 333.74546814 413.67328358 C313.84364086 422.62641049 293.87844222 431.43003678 273.86656189 440.13422108 C273.85197937 441.0961034 273.83739685 442.05798573 273.82237244 443.049016 C273.76357747 446.68184644 273.68636578 450.31410836 273.60411072 453.94647694 C273.57123726 455.50660312 273.54309385 457.06683754 273.52012634 458.627141 C273.31300201 472.33700889 272.72433199 484.98838248 263.86656189 496.13422108 C262.72187439 497.71203358 262.72187439 497.71203358 261.55406189 499.32172108 C253.27311985 507.98782321 243.17949996 512.19685177 231.29527771 512.59839928 C226.03018381 512.69018525 220.7672673 512.68412404 215.50157166 512.66766834 C213.12535569 512.67473256 210.74914422 512.68347969 208.37294006 512.69377613 C201.94109853 512.71622271 195.50950363 512.71334137 189.07763791 512.70445466 C185.05506211 512.69960264 181.03252033 512.70291861 177.00994682 512.70842266 C176.00576025 512.70977514 176.00576025 512.70977514 174.98128707 512.71115495 C173.62094171 512.7130063 172.26059636 512.71486886 170.90025102 512.71674251 C158.16723324 512.73329036 145.43432653 512.72462752 132.70131546 512.70775693 C121.07350995 512.69306269 109.44596292 512.70768969 97.8181907 512.73652709 C85.85318508 512.76597788 73.8882985 512.77687686 61.92325824 512.76734489 C60.56783642 512.76632243 59.21241458 512.76532782 57.85699272 512.76436138 C57.19024734 512.76388499 56.52350195 512.7634086 55.83655216 512.76291778 C51.15821697 512.76076112 46.48002851 512.77080293 41.80171394 512.78513241 C35.49370029 512.80352986 29.18616578 512.79748036 22.87817764 512.77293301 C20.56919148 512.76793825 18.26016856 512.77137995 15.95121193 512.78408146 C-0.95696236 512.86970338 -13.26445965 511.45747677 -26.00062561 499.36078358 C-33.68498781 491.28066023 -37.2910373 481.74800384 -37.26765919 470.73864365 C-37.27001142 469.98768591 -37.27236365 469.23672818 -37.27478716 468.46301416 C-37.28147406 465.93241713 -37.28101903 463.40187149 -37.28060913 460.87126637 C-37.28390795 459.04424161 -37.28763356 457.21721757 -37.29175061 455.39019448 C-37.30177672 450.35816876 -37.30548839 445.32615496 -37.30813992 440.29412067 C-37.31204117 434.87129355 -37.32161964 429.44847588 -37.33035278 424.02565479 C-37.35012243 410.92370793 -37.36018412 397.82176028 -37.36908057 384.71980223 C-37.37346272 378.55127591 -37.37882973 372.38275045 -37.38406944 366.21422482 C-37.40108235 345.71095012 -37.41557675 325.20767596 -37.42281818 304.70439529 C-37.42472811 299.38274542 -37.42664678 294.06109555 -37.42860413 288.73944569 C-37.42884428 288.07830543 -37.42908443 287.41716516 -37.42933185 286.73599035 C-37.43697775 265.97116673 -37.45864461 245.20639463 -37.49012756 224.44159412 C-37.52548159 201.11344129 -37.54707272 177.78532577 -37.55046242 154.45714527 C-37.5526282 142.10538845 -37.56138679 129.75371301 -37.5869236 117.4019804 C-37.60862076 106.88305854 -37.61668582 96.36423783 -37.60695682 85.84529614 C-37.60240929 80.4788954 -37.60432489 75.11270339 -37.62371826 69.74633121 C-37.64133005 64.83045596 -37.64036815 59.91494201 -37.62482097 54.99906302 C-37.6224419 53.2237587 -37.62678394 51.44842949 -37.63864962 49.67316323 C-37.73076142 34.97788867 -35.41842347 23.08265253 -25.13343811 11.97406483 C-18.51247959 5.64868481 -9.41582412 0.02303577 0 0 Z M-10.50843811 29.57172108 C-10.96992249 30.12730701 -11.43140686 30.68289295 -11.90687561 31.25531483 C-14.74073227 35.59635003 -15.38304131 39.34072592 -15.37953377 44.48103523 C-15.38351586 45.76939665 -15.38749796 47.05775807 -15.39160073 48.38516074 C-15.38589495 49.81285219 -15.38000376 51.24054291 -15.37394714 52.66823292 C-15.37481926 54.18635066 -15.37657036 55.70446811 -15.37912548 57.22258395 C-15.38360174 61.39570328 -15.37559148 65.56872014 -15.36556935 69.74182642 C-15.35694119 74.24143972 -15.35985457 78.74104714 -15.3613739 83.24066639 C-15.36242315 91.0370499 -15.35614234 98.83339995 -15.34489822 106.62977505 C-15.32865165 117.90205296 -15.32343608 129.17431467 -15.32092224 140.44660302 C-15.31654382 158.7346561 -15.30323071 177.02269135 -15.28431702 195.31073475 C-15.26596204 213.0770099 -15.25182659 230.84328018 -15.24330139 248.60956287 C-15.2427654 249.7156465 -15.2422294 250.82173012 -15.24167717 251.96133143 C-15.23751838 260.61149223 -15.23360451 269.26165314 -15.22976804 277.91181409 C-15.21089697 320.31929945 -15.17066124 362.72674018 -15.13343811 405.13422108 C49.87656189 405.13422108 114.88656189 405.13422108 181.86656189 405.13422108 C179.88656189 400.51422108 177.90656189 395.89422108 175.86656189 391.13422108 C175.86656189 390.14422108 175.86656189 389.15422108 175.86656189 388.13422108 C169.85480714 384.67526842 165.60982997 383.57569173 158.72984314 383.70062733 C157.00132657 383.69102957 155.27281096 383.68125886 153.54429626 383.67133045 C150.85172744 383.67995022 148.15939521 383.69688218 145.46690369 383.71893787 C142.84574504 383.73345887 140.22595306 383.71821782 137.60484314 383.70062733 C136.80266861 383.71710819 136.00049408 383.73358906 135.17401123 383.75056934 C130.97374701 383.71309626 129.31585721 383.47195544 125.84703064 380.86444569 C123.85808733 378.12253826 123.27451826 377.17142235 123.44078064 373.88422108 C123.4531073 373.11255604 123.46543396 372.340891 123.47813416 371.54584217 C123.51571838 370.35208973 123.51571838 370.35208973 123.55406189 369.13422108 C123.66084334 363.0856625 123.66084334 363.0856625 121.10874939 357.84515858 C118.34453919 356.15096523 116.12755493 355.13422108 112.86656189 355.13422108 C112.84674255 355.73895252 112.82692322 356.34368397 112.8065033 356.96674061 C112.7106989 359.73130617 112.60124634 362.49517282 112.49156189 365.25922108 C112.46062439 366.2105492 112.42968689 367.16187733 112.39781189 368.14203358 C111.99917078 377.70942033 111.99917078 377.70942033 109.86656189 382.13422108 C105.88045398 383.46292371 102.04212935 383.30672749 97.8846283 383.32709217 C96.96563248 383.33526966 96.04663666 383.34344715 95.09979248 383.35187244 C92.05590975 383.3767039 89.0120735 383.39323477 85.96812439 383.40765858 C84.92902294 383.41298225 83.88992149 383.41830593 82.81933212 383.42379093 C77.32173653 383.45050989 71.82416357 383.46989075 66.32652283 383.48431873 C60.64447223 383.50098372 54.9629997 383.54578086 49.28116798 383.59669018 C44.91457946 383.63031412 40.54812917 383.64189071 36.18142319 383.64754581 C34.08661342 383.65426929 31.99181308 383.66951966 29.89712906 383.69343662 C26.966698 383.72499303 24.03784032 383.72513942 21.10728455 383.71771717 C20.2416539 383.73412251 19.37602325 383.75052784 18.48416138 383.76743031 C14.12700972 383.72223056 12.39890182 383.54895773 8.85151672 380.78525257 C5.48509759 376.28918899 5.71295326 372.21859767 5.70542908 366.82660389 C5.70046417 365.97909565 5.69549927 365.13158741 5.69038391 364.2583971 C5.6757658 361.45137186 5.66896025 358.64440316 5.66343689 355.83734608 C5.65768438 353.88542142 5.65192666 351.93349678 5.64616394 349.98157215 C5.63565442 345.88596807 5.62981169 341.79038362 5.62632751 337.69476795 C5.62084823 332.45474123 5.59683203 327.21497506 5.56835556 321.97502995 C5.54970082 317.94119995 5.54452203 313.9074323 5.54299164 309.87356281 C5.53997011 307.94231971 5.53195848 306.01107758 5.51880646 304.0798769 C5.50168955 301.37285728 5.50364015 298.66646866 5.51011658 295.95941639 C5.50090179 295.16643147 5.49168701 294.37344654 5.48219299 293.55643177 C5.52097458 288.36341538 6.45061583 284.75341232 8.86656189 280.13422108 C12.08068674 277.5452854 15.38884404 277.96015952 19.38999939 278.07172108 C21.29265564 278.08138905 21.29265564 278.08138905 23.23374939 278.09125233 C25.9027291 278.11019516 28.55688212 278.17935461 31.22593689 278.27093983 C35.01790119 278.25940241 38.21281246 278.16293564 41.86656189 277.13422108 C44.80373368 274.14225606 46.41616867 271.04451668 47.86656189 267.13422108 C46.31545715 267.1123473 46.31545715 267.1123473 44.73301697 267.09003162 C40.88420107 267.03191225 37.03596189 266.95468085 33.18760681 266.87176991 C31.52429081 266.83858453 29.86086393 266.81053273 28.19737244 266.78778553 C25.8014669 266.75412109 23.40657154 266.70180168 21.01109314 266.64593983 C20.27131729 266.6395499 19.53154144 266.63315998 18.76934814 266.62657642 C14.33717395 266.50130859 11.25637323 266.08676357 7.86656189 263.13422108 C5.72485945 258.19102602 5.57537809 253.75230508 5.59190369 248.47015858 C5.58423729 247.19582966 5.58423729 247.19582966 5.57641602 245.89575672 C5.56256712 243.10017229 5.56347298 240.30483564 5.56578064 237.50922108 C5.56189165 235.5591876 5.55755656 233.60915496 5.55279541 231.65912342 C5.54534371 227.57722696 5.54561726 223.49541701 5.55088806 219.41351795 C5.55668693 214.18802849 5.53973647 208.96289298 5.51654339 203.73746204 C5.50179942 199.71224371 5.50093516 195.68711055 5.50405312 191.66187 C5.50354043 189.73538988 5.49831249 187.80890492 5.4882412 185.88245106 C5.47587876 183.18749542 5.48266682 180.49322853 5.49424744 177.79828358 C5.4866037 177.00641651 5.47895996 176.21454945 5.47108459 175.39868641 C5.51660174 170.59654585 6.19344247 167.28388317 8.86656189 163.13422108 C12.77208659 160.53053794 16.15320078 160.7827361 20.69078064 160.72015858 C21.982882 160.69110935 21.982882 160.69110935 23.30108643 160.66147327 C26.05197757 160.60170078 28.80291062 160.5553016 31.55406189 160.50922108 C33.4193145 160.47103913 35.28454952 160.43198728 37.14976501 160.39203358 C41.72188775 160.29600118 46.29409303 160.21196158 50.86656189 160.13422108 C49.75715469 156.64751274 48.60318523 153.35937871 46.86656189 150.13422108 C45.9338446 150.11440174 45.00112732 150.09458241 44.04014587 150.07416248 C40.55291824 149.99569065 37.06609127 149.90898593 33.57920837 149.81683826 C32.07505566 149.77874619 30.57081797 149.74386016 29.06651306 149.71234608 C26.89408666 149.66626212 24.72223534 149.60834453 22.55015564 149.54828358 C21.24618835 149.51686268 19.94222107 149.48544178 18.59873962 149.45306873 C14.63429291 149.11437786 11.50998774 148.76967549 7.86656189 147.13422108 C5.81671083 141.85384798 5.57887893 136.98719052 5.60777283 131.37250233 C5.60426819 130.52440998 5.60076355 129.67631763 5.59715271 128.80252552 C5.58839681 126.01717251 5.59416278 123.23207638 5.60093689 120.44672108 C5.59958848 118.5005129 5.59764647 116.55430506 5.59513855 114.60809803 C5.5921956 110.53636933 5.59645825 106.46472859 5.6058197 102.39301014 C5.6172137 97.18452928 5.61064979 91.97625457 5.59867477 86.76778126 C5.59143379 82.75110806 5.59375439 78.73448341 5.59893036 74.71780872 C5.60026066 72.79774418 5.59864093 70.87767518 5.59397125 68.95761585 C5.58886918 66.27027242 5.59666781 63.58325882 5.60777283 60.89593983 C5.60372437 60.10923908 5.5996759 59.32253834 5.59550476 58.51199818 C5.63160992 53.77480793 5.9238237 49.53402611 7.86656189 45.13422108 C12.49066666 42.58067608 17.55274524 42.84378738 22.71421814 42.85956287 C23.58327789 42.85445194 24.45233765 42.84934101 25.34773254 42.8440752 C28.20824653 42.83022337 31.06851844 42.8311324 33.92906189 42.83343983 C35.92393584 42.829551 37.91880897 42.82521594 39.91368103 42.8204546 C44.08973376 42.81300226 48.26570193 42.81327691 52.4417572 42.81854725 C57.78831187 42.82434612 63.1345206 42.80739594 68.48101807 42.78420258 C72.59888221 42.76946001 76.71666309 42.76859416 80.83454895 42.7717123 C82.8056863 42.77119954 84.77682837 42.76597024 86.74794006 42.75590038 C89.50515658 42.74354074 92.26169961 42.75032441 95.01890564 42.76190662 C95.82947418 42.75426289 96.64004272 42.74661915 97.47517395 42.73874378 C102.29178942 42.78338302 105.78649185 43.29591464 109.86656189 46.13422108 C112.09203031 49.86638871 112.09545115 53.25584818 112.04258728 57.53485584 C112.03340775 58.81131474 112.02422821 60.08777363 112.01477051 61.40291309 C112.00597933 62.08165045 111.99718815 62.7603878 111.98813057 63.45969296 C111.95540252 66.35569351 111.95816253 69.25134844 111.95841885 72.1475029 C111.9582763 77.52365483 111.94416311 82.898912 111.870224 88.27460194 C111.63372617 106.61169295 111.9765544 121.96769476 121.86656189 138.13422108 C122.19656189 138.13422108 122.52656189 138.13422108 122.86656189 138.13422108 C122.86798691 137.03032536 122.86941193 135.92642963 122.87088013 134.78908253 C122.88754927 124.38612379 122.93032041 113.98355627 122.99865246 103.58080482 C123.032944 98.23258639 123.05803583 92.88465427 123.06211853 87.53632069 C123.06639679 82.37486654 123.09482059 77.2140585 123.13999367 72.0528059 C123.15298374 70.08367838 123.15727102 68.11447359 123.15271568 66.14530849 C123.14782042 63.38675254 123.17385364 60.63009278 123.20713806 57.87176991 C123.19851242 57.05753056 123.18988678 56.24329121 123.18099976 55.40437794 C123.26650022 51.17768103 123.50989697 49.58633392 126.22027588 46.15062428 C130.72709989 42.71653804 134.84789493 42.98056901 140.28184509 42.97308826 C141.1407132 42.96812336 141.9995813 42.96315845 142.88447571 42.9580431 C145.72877298 42.94342582 148.57301446 42.93662003 151.41734314 42.93109608 C153.39408368 42.92534406 155.37082419 42.91958633 157.3475647 42.91382313 C161.49444336 42.90331423 165.64130264 42.8974709 169.78819275 42.8939867 C175.09781853 42.88850365 180.40718766 42.86447912 185.71673298 42.83601475 C189.80113469 42.81737604 193.88547475 42.8121821 197.96991539 42.81065083 C199.92710459 42.80762632 201.88429276 42.79960462 203.8414402 42.78646564 C206.58218948 42.76938025 209.32231393 42.77129154 212.06309509 42.77777576 C212.86902603 42.76856098 213.67495697 42.7593462 214.50531006 42.74985218 C219.34630565 42.78566679 222.68581907 43.43035642 226.86656189 46.13422108 C229.29671628 49.77945266 229.17289627 52.51012609 229.18540955 56.72675037 C229.20047798 57.8832056 229.20047798 57.8832056 229.21585083 59.06302357 C229.24674294 61.61148807 229.26373456 64.15984723 229.28062439 66.70843983 C229.29933121 68.47536091 229.31890425 70.24227302 229.33930969 72.0091753 C229.39068835 76.6599343 229.43028334 81.31072228 229.467453 85.96161366 C229.50745674 90.70737378 229.55856562 95.45301274 229.60874939 100.1986742 C229.70557655 109.51043812 229.78995958 118.82227036 229.86656189 128.13422108 C230.85656189 128.46422108 231.84656189 128.79422108 232.86656189 129.13422108 C233.57941345 128.38656483 234.29226501 127.63890858 235.02671814 126.86859608 C235.99374914 125.87339912 236.96122086 124.87863029 237.92906189 123.88422108 C238.39505798 123.39308826 238.86105408 122.90195545 239.34117126 122.39593983 C240.05176697 121.67084217 240.05176697 121.67084217 240.77671814 120.93109608 C241.20090027 120.4912035 241.6250824 120.05131092 242.06211853 119.59808826 C244.78628293 117.38809101 247.7970016 115.828428 250.86656189 114.13422108 C250.93633569 104.91933244 250.98951133 95.70453596 251.02199841 86.48943996 C251.03759731 82.20964259 251.05872885 77.93002709 251.09288025 73.65033436 C251.12568128 69.51357093 251.14345824 65.37698152 251.15119362 61.240098 C251.15670015 59.6685802 251.16745225 58.097071 251.18375206 56.52562809 C251.45867199 41.89600689 251.45867199 41.89600689 245.67906189 28.75922108 C239.40973692 22.90785111 233.47975154 21.54122989 225.07481384 21.62628651 C224.11807172 21.62004654 223.16132959 21.61380658 222.17559528 21.60737753 C218.9850903 21.59148397 215.79535315 21.60403784 212.60484314 21.61664295 C210.31124935 21.61122024 208.01765904 21.60409674 205.72407532 21.59540272 C199.50511492 21.57718443 193.28642028 21.58423093 187.06745529 21.59691906 C180.555578 21.60705435 174.04372329 21.5976519 167.53184509 21.5913744 C155.89663794 21.58363374 144.26155194 21.59605525 132.62636387 21.61641175 C122.08625288 21.63428172 111.54631814 21.63117728 101.00621033 21.6127367 C88.75331074 21.59130939 76.50053659 21.58337385 64.24761868 21.59518576 C57.76627815 21.60141812 51.28505891 21.60226322 44.8037262 21.5890398 C38.71003271 21.57747543 32.61667168 21.5855183 26.52301407 21.60861683 C24.28814368 21.6139007 22.05324527 21.61239569 19.81838608 21.60356617 C16.76465111 21.59261481 13.71197751 21.6063702 10.65830994 21.62628651 C9.33572662 21.61290218 9.33572662 21.61290218 7.98642445 21.59924746 C0.75353619 21.69057456 -5.8371594 23.72587229 -10.50843811 29.57172108 Z M27.86656189 64.13422108 C27.86656189 85.25422108 27.86656189 106.37422108 27.86656189 128.13422108 C30.83656189 128.13422108 33.80656189 128.13422108 36.86656189 128.13422108 C36.43343689 127.16484608 36.00031189 126.19547108 35.55406189 125.19672108 C30.47385511 113.23088251 28.16334745 102.20056861 32.99156189 89.57172108 C37.88433143 79.49997543 44.64583319 74.36050411 54.80406189 69.82172108 C66.44270546 67.20896436 76.82628762 67.68949251 87.08921814 74.11078358 C88.81360357 75.30055701 88.81360357 75.30055701 90.86656189 75.13422108 C90.86656189 71.50422108 90.86656189 67.87422108 90.86656189 64.13422108 C70.07656189 64.13422108 49.28656189 64.13422108 27.86656189 64.13422108 Z M144.86656189 64.13422108 C144.86656189 85.25422108 144.86656189 106.37422108 144.86656189 128.13422108 C156.28249939 128.22703358 156.28249939 128.22703358 167.92906189 128.32172108 C171.51406555 128.36268909 171.51406555 128.36268909 175.17149353 128.40448475 C177.08156327 128.4132527 178.99163865 128.4208959 180.90171814 128.42718983 C181.88072083 128.44253773 182.85972351 128.45788563 183.86839294 128.47369862 C189.6845507 128.47591036 193.54051467 127.66806889 198.86656189 125.13422108 C201.83656189 124.47422108 204.80656189 123.81422108 207.86656189 123.13422108 C207.86656189 103.66422108 207.86656189 84.19422108 207.86656189 64.13422108 C187.07656189 64.13422108 166.28656189 64.13422108 144.86656189 64.13422108 Z M54.05406189 95.82172108 C51.63699296 100.52864478 51.24076861 104.98302236 52.70127869 110.00360584 C54.07111808 113.41381469 55.56648977 116.73947086 57.11656189 120.07172108 C57.70272901 121.37166647 58.28697926 122.6724776 58.86949158 123.97406483 C60.15066835 126.82592607 61.44502928 129.67130066 62.74937439 132.51263905 C64.97737159 137.36740023 67.17322805 142.23637832 69.36656189 147.10687733 C72.57729391 154.23021433 75.80016187 161.34793726 79.03062439 168.46234608 C83.55095277 178.42145918 88.03042934 188.39847101 92.49156189 198.38422108 C92.83827942 199.16015614 93.18499695 199.93609119 93.54222107 200.73553944 C95.28661103 204.63967927 97.03037541 208.54409804 98.77378845 212.4486742 C102.30034105 220.34581115 105.83396688 228.23978578 109.36656189 236.13422108 C110.76897608 239.26830415 112.17132861 242.40241479 113.57359314 245.53656483 C114.09610909 246.70441769 114.09610909 246.70441769 114.62918091 247.89586353 C116.86618204 252.8963228 119.1014513 257.89755318 121.33564758 262.89926624 C122.87191856 266.33835945 124.40877022 269.77719302 125.94566345 273.21600819 C126.67137536 274.84022817 127.39680928 276.46457239 128.12193298 278.08905506 C132.3080711 287.46698941 136.53432343 296.82260903 140.86656189 306.13422108 C136.99096163 304.05200306 133.11610255 301.96841009 129.24156189 299.88422108 C128.65809998 299.570425 128.07463806 299.25662891 127.47349548 298.93332386 C118.37698575 294.03983888 109.29893739 289.11391031 100.25083923 284.13129139 C96.03490317 281.81945877 91.80084145 279.54355401 87.53062439 277.33343983 C86.35427429 276.72181995 86.35427429 276.72181995 85.15415955 276.09784412 C80.5090666 274.14115449 76.32388679 274.14343466 71.66734314 276.02093983 C66.87990207 278.68456231 63.56857661 281.8590326 61.86656189 287.13422108 C60.98042293 291.81809844 61.36338701 295.90672429 63.49156189 300.19672108 C67.24024482 305.41627688 72.86808165 307.98083447 78.43833923 310.86761951 C81.23799205 312.32796526 84.01531617 313.82660992 86.79234314 315.32953358 C91.26037165 317.74711224 95.73307807 320.15560724 100.21031189 322.55609608 C106.11012582 325.72275855 111.99230456 328.92045336 117.86656189 332.13422108 C125.84955257 336.49946287 133.85263628 340.8260448 141.86656189 345.13422108 C152.73003176 350.97668534 163.58003085 356.84210876 174.39048767 362.7821703 C176.79029785 364.09257739 179.19997793 365.38285197 181.61265564 366.66937733 C183.05165807 367.44895555 184.49047243 368.22888105 185.92906189 369.00922108 C186.5660199 369.34220203 187.20297791 369.67518299 187.85923767 370.01825428 C192.30455528 372.45645831 194.86622074 375.15267195 197.86656189 379.13422108 C215.70941285 371.65596736 233.31674363 363.66104324 250.94888306 355.70299244 C260.141552 351.55563369 269.34685156 347.43667344 278.55406189 343.32172108 C280.89818854 342.27382796 283.24229237 341.22588378 285.58639526 340.17793751 C287.11003371 339.49678732 288.63368467 338.81566514 290.15734863 338.13457203 C298.02114845 334.61896522 305.88168202 331.09608134 313.74156189 327.57172108 C314.37146027 327.28928547 315.00135864 327.00684986 315.65034485 326.7158556 C319.05584357 325.1888515 322.46125127 323.66164461 325.86656189 322.13422108 C325.36460546 311.87376869 323.17816878 301.96512441 321.05406189 291.94672108 C320.85881927 291.02048939 320.66357666 290.0942577 320.4624176 289.13995838 C314.02806002 258.74130678 306.69995096 228.5251606 297.55406189 198.82172108 C297.19905106 197.66597584 297.19905106 197.66597584 296.83686829 196.48688221 C292.21268737 181.53020908 287.15014532 166.59093888 280.67906189 152.32172108 C280.20436462 151.23794178 280.20436462 151.23794178 279.72007751 150.13226795 C276.93082062 143.90046588 273.91718269 137.70958791 267.86656189 134.13422108 C263.03811922 133.5210855 260.93371959 133.58011997 256.61656189 135.82172108 C252.1250412 139.59868166 249.19523347 142.99542012 247.91734314 148.89593983 C247.815977 153.36384744 249.99376411 157.17423116 251.86656189 161.13422108 C253.86820141 165.81855588 255.55626002 169.96148509 254.86656189 175.13422108 C253.52002668 178.25251315 252.51951006 179.7351972 249.61656189 181.50922108 C245.95075023 182.34236009 243.50169484 182.1079174 239.86656189 181.13422108 C236.01805633 177.82560978 233.92837619 174.74828215 231.96421814 170.09906483 C231.21688416 168.39073475 231.21688416 168.39073475 230.45445251 166.64789295 C229.43671504 164.26187846 228.42369778 161.87384513 227.41539001 159.48383045 C223.94121555 151.12795429 223.94121555 151.12795429 216.86656189 146.13422108 C212.356208 144.73761403 208.64037494 144.91497404 204.11656189 146.19672108 C199.53640994 148.92719628 197.13039267 151.89379378 194.49156189 156.57172108 C192.66936651 164.04272215 196.70051568 170.59105891 199.86656189 177.13422108 C206.49972772 190.84276379 206.49972772 190.84276379 205.30406189 198.94672108 C203.86656189 202.13422108 203.86656189 202.13422108 201.24156189 203.63422108 C196.96319525 204.26805317 194.10940902 204.09228333 189.86656189 203.13422108 C185.73958181 199.93661443 184.1112238 195.82007908 182.11656189 191.14984608 C181.60657654 189.98820942 181.60657654 189.98820942 181.08628845 188.80310535 C180.00418428 186.33390312 178.93492673 183.85939485 177.86656189 181.38422108 C176.79568869 178.92449879 175.72215034 176.46596701 174.64683533 174.00818348 C173.98028047 172.48241257 173.31666853 170.95535116 172.65660095 169.42676258 C171.10159805 165.84591152 169.5070874 162.28436627 167.83140564 158.75824451 C167.53097351 158.12158863 167.23054138 157.48493275 166.92100525 156.82898426 C164.97224567 153.69682362 162.32440273 152.22330481 158.86656189 151.13422108 C152.41189792 150.01974672 147.21790867 151.43317625 141.86656189 155.13422108 C138.66921774 158.16328395 136.77459155 161.45001986 135.86167908 165.80902576 C135.8678957 168.76938262 136.68992997 170.69034454 137.88218689 173.39984608 C138.34294617 174.45760242 138.80370544 175.51535877 139.27842712 176.60516834 C140.68177698 179.72360372 142.08592335 182.84163561 143.4967041 185.95671558 C144.74291226 188.70861832 145.98444044 191.46262358 147.22520447 194.21698475 C147.86465882 195.62797424 148.50958462 197.03649602 149.15977478 198.44257069 C156.00905124 213.285816 156.00905124 213.285816 154.86656189 221.13422108 C152.92906189 224.19672108 152.92906189 224.19672108 149.86656189 226.13422108 C145.54113488 227.01025693 142.28064859 227.02363125 138.48789978 224.63812733 C135.02334646 221.32878032 133.52842281 217.85807163 131.64390564 213.50531483 C131.07101051 212.22591778 131.07101051 212.22591778 130.48654175 210.92067432 C129.24638708 208.14312694 128.02519989 205.35767457 126.80406189 202.57172108 C125.94541103 200.63921577 125.08553971 198.7072523 124.22447205 196.77582264 C122.1252875 192.06010133 120.04029275 187.33827724 117.96012878 182.61414051 C116.4989063 179.3004758 115.02566138 175.99233224 113.55015564 172.68500233 C111.68244998 168.49740965 109.82053256 164.30734444 107.96421814 160.11468983 C105.54440273 154.65453129 103.1123038 149.19994539 100.67515564 143.74750233 C100.30765198 142.92528187 99.94014832 142.10306141 99.56150818 141.25592518 C97.6970208 137.08620919 95.82997319 132.91766162 93.95884705 128.7509203 C90.92124108 121.98386808 87.88682088 115.21815576 84.95640564 108.40375233 C84.54930359 107.46652332 84.14220154 106.52929432 83.72276306 105.56366444 C83.01756988 103.93523004 82.32259605 102.30230499 81.64122009 100.66376209 C79.74781265 96.31988441 77.87487836 93.70005423 73.86656189 91.13422108 C65.79547387 88.4438584 60.2424843 90.06008642 54.05406189 95.82172108 Z M27.86656189 182.13422108 C27.86656189 202.92422108 27.86656189 223.71422108 27.86656189 245.13422108 C47.99656189 245.13422108 68.12656189 245.13422108 88.86656189 245.13422108 C87.46941468 240.94277944 86.05610606 237.14655936 84.24937439 233.15375233 C83.73020447 232.00165272 83.21103455 230.84955311 82.6761322 229.66254139 C82.11466046 228.42391118 81.55313583 227.18530495 80.99156189 225.94672108 C79.82111929 223.35480128 78.65250634 220.76205757 77.48374939 218.16937733 C77.18581482 217.50924641 76.88788025 216.84911549 76.58091736 216.1689806 C74.49328169 211.53932248 72.42721768 206.90049644 70.37437439 202.25531483 C70.0977597 201.62990299 69.82114502 201.00449116 69.53614807 200.36012745 C68.20896231 197.35863104 66.88417268 194.35610692 65.56236267 191.35223866 C65.09040466 190.2851366 64.61844666 189.21803455 64.13218689 188.11859608 C63.5100531 186.70658924 63.5100531 186.70658924 62.87535095 185.26605701 C62.04369322 183.19911663 62.04369322 183.19911663 60.86656189 182.13422108 C58.41852422 182.04579278 55.99811395 182.01886135 53.55015564 182.03656483 C52.90244202 182.03757191 52.25472839 182.03857899 51.58738708 182.03961658 C49.1595941 182.04486265 46.73182628 182.05882383 44.30406189 182.07172108 C38.87968689 182.09234608 33.45531189 182.11297108 27.86656189 182.13422108 Z M27.86656189 299.13422108 C27.86656189 319.92422108 27.86656189 340.71422108 27.86656189 362.13422108 C48.65656189 362.13422108 69.44656189 362.13422108 90.86656189 362.13422108 C90.86656189 355.53422108 90.86656189 348.93422108 90.86656189 342.13422108 C89.38027283 341.37238514 87.89398376 340.6105492 86.36265564 339.82562733 C48.30047144 320.21899495 48.30047144 320.21899495 39.86656189 299.13422108 C35.90656189 299.13422108 31.94656189 299.13422108 27.86656189 299.13422108 Z M331.15953064 343.37640858 C330.3797435 343.73091587 329.59995636 344.08542316 328.79653931 344.4506731 C326.21160167 345.62807067 323.63301974 346.81878981 321.05406189 348.00922108 C319.24156705 348.83704383 317.42857134 349.66377077 315.61509705 350.48944569 C311.86736176 352.19641039 308.12151763 353.90742919 304.3768158 355.62103748 C296.95910856 359.01026421 289.51401525 362.33762042 282.0660553 365.65970325 C278.9508256 367.04948939 275.83676006 368.44187362 272.72268677 369.83424854 C270.37263894 370.88499703 268.02243836 371.93540328 265.67222595 372.98578358 C260.67121135 375.22122351 255.67116656 377.45882786 250.67124939 379.69672108 C248.97089242 380.45770987 247.27053436 381.21869622 245.57017517 381.97968006 C243.14286337 383.06601474 240.71557276 384.15239655 238.28837585 385.23898792 C227.15593359 390.22250021 216.01444901 395.1853543 204.86656189 400.13422108 C205.523834 404.72734745 207.31041246 408.67072233 209.24546814 412.84125233 C209.57699387 413.56664707 209.90851959 414.29204182 210.25009155 415.03941822 C211.30479682 417.34416066 212.36680723 419.64544989 213.42906189 421.94672108 C214.14764638 423.51355578 214.86575072 425.08061079 215.58335876 426.64789295 C217.33887562 430.47924284 219.10094956 434.30751368 220.86656189 438.13422108 C225.85465284 437.46943304 230.07108014 435.38818692 234.59312439 433.30218983 C235.87039902 432.72080502 235.87039902 432.72080502 237.17347717 432.12767506 C238.99893327 431.29610598 240.82331347 430.46217178 242.64671326 429.6261034 C246.48353904 427.86689285 250.32550118 426.11903986 254.16722107 424.3705492 C256.0845631 423.49776633 258.00163741 422.62439509 259.91844177 421.75043201 C267.13309831 418.46184693 274.36530337 415.21642007 281.61656189 412.00922108 C291.58895182 407.59413214 301.54667736 403.14734119 311.49943542 398.68820667 C326.92868221 391.775824 342.37638081 384.90921947 357.86656189 378.13422108 C354.71021301 369.3733597 351.06255092 360.8739124 347.24156189 352.38422108 C346.76227234 351.30011951 346.28298279 350.21601795 345.78916931 349.09906483 C345.0965802 347.57732655 345.0965802 347.57732655 344.38999939 346.02484608 C343.97669373 345.10735584 343.56338806 344.18986561 343.13755798 343.24457264 C339.97360311 337.99116774 335.4911148 341.35421136 331.15953064 343.37640858 Z M-15.13343811 427.13422108 C-18.96652341 457.17967484 -18.96652341 457.17967484 -9.38734436 484.15765858 C-8.55009827 484.82668201 -8.55009827 484.82668201 -7.69593811 485.50922108 C-7.14035217 485.97070545 -6.58476624 486.43218983 -6.01234436 486.90765858 C-0.554468 490.47059657 4.38467473 490.41033177 10.70567322 490.36127186 C11.69151398 490.36156391 12.67735474 490.36185596 13.69306946 490.36215687 C16.94500085 490.3607658 20.19670187 490.34521488 23.44859314 490.32953358 C25.70589065 490.32580266 27.96318979 490.32295606 30.2204895 490.32095814 C36.15692122 490.31332789 42.09325483 490.29368453 48.02964783 490.27155018 C54.08920464 490.2510787 60.14877733 490.24195363 66.20835876 490.23187733 C78.09446954 490.21043815 89.98050755 490.17630946 101.86656189 490.13422108 C99.85403822 488.60310192 97.88820301 487.14720575 95.71812439 485.84515858 C88.66555299 481.61361574 83.86845096 476.25868223 81.49156189 468.25922108 C79.7104467 458.88981305 80.70032659 450.73411895 84.86656189 442.13422108 C87.11656189 439.07172108 87.11656189 439.07172108 88.86656189 437.13422108 C88.86656189 436.47422108 88.86656189 435.81422108 88.86656189 435.13422108 C93.53322856 432.80088774 98.19989522 430.46755441 102.86656189 428.13422108 C102.86656189 427.80422108 102.86656189 427.47422108 102.86656189 427.13422108 C63.92656189 427.13422108 24.98656189 427.13422108 -15.13343811 427.13422108 Z M120.86656189 427.13422108 C122.84656189 428.12422108 122.84656189 428.12422108 124.86656189 429.13422108 C134.41312424 434.74065678 140.43918729 440.74874519 143.55406189 451.50922108 C144.81998682 462.14299049 142.92889494 471.24676951 136.68296814 480.09125233 C133.59131963 483.56852581 129.85850514 485.81509214 125.86656189 488.13422108 C124.87656189 488.79422108 123.88656189 489.45422108 122.86656189 490.13422108 C137.21823307 490.20438902 151.56987755 490.25704769 165.92168522 490.28965759 C172.58591462 490.30530921 179.25000631 490.3265386 185.91416931 490.36053944 C192.34619721 490.3931503 198.77811424 490.4110779 205.21021843 490.41885281 C207.66339806 490.42439316 210.11657166 490.43521207 212.56970406 490.45141125 C216.0074128 490.47320793 219.44466423 490.47618699 222.88243103 490.47479725 C224.4015786 490.49097599 224.4015786 490.49097599 225.95141602 490.50748158 C233.89903007 490.47274639 240.04719725 488.95358571 245.86656189 483.13422108 C249.43545899 477.41437252 251.00781306 472.02815199 250.96421814 465.27093983 C250.96099548 464.38470936 250.95777283 463.49847889 250.95445251 462.58539295 C250.94607361 461.67338123 250.9376947 460.76136951 250.92906189 459.82172108 C250.92229431 458.42469959 250.92229431 458.42469959 250.91539001 456.99945545 C250.90365423 454.71097735 250.88723552 452.422633 250.86656189 450.13422108 C240.10623605 454.44405981 229.51495447 459.04160209 219.00474548 463.93256092 C217.65437195 464.5563866 217.65437195 464.5563866 216.27671814 465.19281483 C215.47371277 465.56720692 214.6707074 465.94159901 213.84336853 466.32733631 C211.86656189 467.13422108 211.86656189 467.13422108 209.86656189 467.13422108 C203.92656189 453.93422108 197.98656189 440.73422108 191.86656189 427.13422108 C168.43656189 427.13422108 145.00656189 427.13422108 120.86656189 427.13422108 Z M102.86656189 454.13422108 C101.40200638 457.61254042 101.8535097 459.08969009 102.92906189 462.75922108 C105.19723818 466.71023784 106.55191225 467.78060551 110.86656189 469.13422108 C114.93249288 469.13422108 116.48938313 468.43596409 119.67906189 465.88422108 C121.93892285 463.04325301 122.77677083 461.72586355 122.86656189 458.13422108 C122.07642005 454.89463953 121.00266947 453.28233815 118.74156189 450.82172108 C112.39789921 447.09826689 107.27144926 448.12755649 102.86656189 454.13422108 Z " fill="#000000" transform="translate(81.13343811035156,-0.13422107696533203)"/>
</svg>
