<?xml version="1.0" encoding="UTF-8"?>
<svg version="1.1" xmlns="http://www.w3.org/2000/svg" width="512" height="512">
<path d="M0 0 C1.25691206 -0.00384115 2.51382412 -0.00768229 3.80882442 -0.01163983 C5.21144292 -0.01085954 6.61406138 -0.00998075 8.01667976 -0.00901413 C9.50063438 -0.01159701 10.98458831 -0.01460995 12.46854126 -0.01801753 C16.55668021 -0.02609973 20.6448016 -0.02787778 24.73294759 -0.028615 C29.13794442 -0.03046341 33.5429321 -0.03800961 37.94792366 -0.04475021 C47.5841368 -0.05834218 57.22034578 -0.06435944 66.85656691 -0.06876087 C72.87038925 -0.07152153 78.88420998 -0.07575853 84.89803123 -0.08026505 C101.54015884 -0.09245826 118.18228514 -0.10275785 134.82441711 -0.10614014 C136.42263243 -0.10646949 136.42263243 -0.10646949 138.05313493 -0.10680549 C139.65522444 -0.10713291 139.65522444 -0.10713291 141.28967941 -0.10746694 C143.45406079 -0.10791041 145.61844218 -0.10835697 147.78282356 -0.10880661 C148.85643682 -0.10902804 149.93005008 -0.10924947 151.03619708 -0.10947761 C168.44053708 -0.11342735 185.84483525 -0.1308865 203.24915908 -0.15416613 C221.10686584 -0.17785995 238.96455159 -0.19034107 256.82227433 -0.19150805 C266.85323369 -0.19242586 276.88413855 -0.19820486 286.91508293 -0.21632767 C295.4549844 -0.23170201 303.99481453 -0.23686488 312.5347272 -0.22858956 C316.89379483 -0.22467373 321.25271865 -0.22565799 325.61176872 -0.23964691 C329.60027326 -0.25232996 333.5885251 -0.25123794 337.577029 -0.2390562 C339.02183943 -0.23708946 340.46666741 -0.24022246 341.91145311 -0.24890056 C343.87209204 -0.25993388 345.83281379 -0.25074598 347.79345703 -0.24050903 C348.88352676 -0.24110612 349.97359649 -0.24170321 351.09669864 -0.24231839 C355.56187669 0.32805642 358.14024891 2.24910701 361.27256966 5.38142776 C364.57399675 10.56938462 364.12587689 16.33506182 363.73195076 22.29730606 C363.68859167 22.9836793 363.64523259 23.67005255 363.60055959 24.37722498 C363.45465277 26.65899723 363.29844124 28.93994139 363.14219856 31.22102737 C363.03497897 32.86419099 362.9283925 34.50739602 362.8223896 36.15063858 C362.53341296 40.60148549 362.23542612 45.05168774 361.93567514 49.50182033 C361.62290342 54.16624473 361.31801896 58.83118499 361.01216316 63.49606705 C360.497377 71.33017036 359.97714835 79.16389667 359.45323372 86.99739456 C358.78166397 97.0390221 358.11899433 107.08121601 357.45917892 117.12362194 C356.89087001 125.77228215 356.31851258 134.42067376 355.74548483 143.06902242 C355.56194586 145.84153274 355.37894857 148.61407844 355.19602013 151.3866291 C354.90780388 155.75096917 354.6170579 160.11513397 354.3243866 164.47917747 C354.21757376 166.07703888 354.11154096 167.67495267 354.00636292 169.27292252 C353.86214901 171.46162304 353.71501529 173.65010897 353.56715584 175.83856583 C353.48566103 177.06098952 353.40416622 178.28341322 353.32020187 179.54288006 C352.99892008 183.41657037 352.50469155 187.27445265 352.02256966 191.13142776 C235.20256966 191.13142776 118.38256966 191.13142776 -1.97743034 191.13142776 C-5.93743034 141.63142776 -9.89743034 92.13142776 -11.53993034 3.25642776 C-7.68852183 0.0625768 -4.84758499 0.00554488 0 0 Z " fill="#000000" transform="translate(81.97743034362793,267.8685722351074)"/>
<path d="M0 0 C21.03378491 16.37048066 35.17406077 39.81686829 38.51953125 66.3984375 C41.34915984 92.37647347 35.40276973 118.90261253 19.01953125 139.6484375 C17.75641273 141.113458 16.48648089 142.57265767 15.20703125 144.0234375 C14.76488281 144.60738281 14.32273437 145.19132813 13.8671875 145.79296875 C6.44179657 155.43017825 -4.93736914 162.88210491 -15.79296875 168.0234375 C-16.82421875 168.53519531 -17.85546875 169.04695312 -18.91796875 169.57421875 C-42.68272588 180.65893764 -69.71497889 181.14163037 -94.33203125 172.48046875 C-103.25860712 169.12478289 -111.19196751 164.82933048 -118.79296875 159.0234375 C-119.31842285 158.62672852 -119.84387695 158.23001953 -120.38525391 157.82128906 C-141.65964634 141.55152232 -154.21108497 118.50221268 -158.10546875 92.1484375 C-161.05282221 65.45383616 -154.48728863 38.73930882 -137.64575195 17.54760742 C-103.30591524 -24.10080295 -43.89808433 -31.06633661 0 0 Z " fill="#000000" transform="translate(315.79296875,18.9765625)"/>
<path d="M0 0 C116.82 0 233.64 0 354 0 C354 29 354 29 350 35 C346.85123899 38.08197739 344.60910807 38.37592573 340.26151466 38.38031673 C339.08334635 38.38875668 337.90517804 38.39719662 336.69130766 38.40589231 C335.39580217 38.39988227 334.10029668 38.39387222 332.76553345 38.38768005 C331.37629527 38.39185182 329.9870605 38.39732847 328.59783208 38.40399987 C324.77605516 38.41849418 320.95449315 38.4141974 317.13270426 38.40683305 C313.0126278 38.40211345 308.89259865 38.41460055 304.77253723 38.42485046 C296.69909406 38.44206801 288.62572862 38.4428723 280.55227186 38.43763756 C273.99110182 38.43359985 267.42995479 38.43503466 260.86878586 38.44038582 C259.93576342 38.44113424 259.00274098 38.44188266 258.04144513 38.44265376 C256.14613665 38.44418521 254.25082817 38.44572356 252.3555197 38.44726873 C234.57148822 38.46100465 216.78750071 38.45554859 199.00347023 38.44408352 C182.72825382 38.43415159 166.45315111 38.44708917 150.17795224 38.47101771 C133.47394148 38.495392 116.76998371 38.5050206 100.06595552 38.49836498 C90.68498516 38.49486884 81.30410224 38.49713078 71.92314529 38.51461601 C63.93662481 38.52931719 55.95025333 38.53000088 47.96373583 38.5125451 C43.88803508 38.50401517 39.81260074 38.50193386 35.73691368 38.51719666 C32.00613177 38.53099496 28.27584573 38.52634386 24.54509287 38.50695742 C22.55544751 38.50139287 20.56577722 38.51550947 18.57617915 38.53031152 C13.62794406 38.48927377 9.9123464 38.3977869 5.34447289 36.40617466 C-4.2483071 26.56093215 0 12.96003565 0 0 Z " fill="#000000" transform="translate(80,474)"/>
<path d="M0 0 C1.47922856 -0.00299622 2.95845634 -0.00639981 4.43768311 -0.01017761 C8.43789174 -0.01897531 12.43807895 -0.02135396 16.43829632 -0.0219934 C18.94304054 -0.02270638 21.44777939 -0.02484539 23.95252228 -0.02749062 C32.70663292 -0.03673049 41.46072839 -0.04082726 50.21484375 -0.04003906 C58.34909281 -0.03943884 66.48327544 -0.04998323 74.6175077 -0.06578273 C81.62247265 -0.0788994 88.627416 -0.08422122 95.63239312 -0.08358365 C99.80664679 -0.08332985 103.98084137 -0.08611551 108.1550827 -0.0967617 C112.08513763 -0.10651228 116.01507783 -0.10647468 119.94513702 -0.09924507 C121.37850616 -0.09820778 122.81188271 -0.10051058 124.24523926 -0.10660553 C142.32077326 -0.17842103 156.94757936 2.13014862 170.27050781 15.02416992 C177.3493732 22.59228734 180.08519628 30.0476899 182.32910156 40.14526367 C102.46910156 40.14526367 22.60910156 40.14526367 -59.67089844 40.14526367 C-56.9563881 26.57271198 -51.61391438 16.59187122 -40.29199219 8.43041992 C-27.65452404 0.34164923 -14.58932882 -0.0059131 0 0 Z " fill="#000000" transform="translate(194.6708984375,212.854736328125)"/>
</svg>
