<svg width="866px" height="657px" id="Layer_1" data-name="Layer 1" xmlns="http://www.w3.org/2000/svg" viewBox="0 0 100 100"><defs><style>.cls-1{fill:#0047ba;}</style></defs><path class="cls-1" d="M50,33.2A16.8,16.8,0,1,0,66.8,50,16.84,16.84,0,0,0,50,33.2Zm0,25.1A8.3,8.3,0,1,1,58.3,50,8.28,8.28,0,0,1,50,58.3Z"/><path class="cls-1" d="M93.2,45.7H84A34.38,34.38,0,0,0,54.3,16V6.8a4.3,4.3,0,1,0-8.6,0V16A34.38,34.38,0,0,0,16,45.7H6.8a4.3,4.3,0,0,0,0,8.6H16A34.38,34.38,0,0,0,45.7,84v9.2a4.3,4.3,0,0,0,8.6,0V84A34.38,34.38,0,0,0,84,54.3h9.2a4.3,4.3,0,0,0,0-8.6ZM50,75.7A25.7,25.7,0,1,1,75.7,50,25.69,25.69,0,0,1,50,75.7Z"/></svg>