<?xml version="1.0" encoding="UTF-8"?>
<svg version="1.1" xmlns="http://www.w3.org/2000/svg" width="392" height="391">
<path d="M0 0 C0.91096764 -0.00226556 1.82193528 -0.00453111 2.760508 -0.00686532 C5.7962386 -0.01316745 8.83192412 -0.01237839 11.86766052 -0.0115509 C14.05137184 -0.01454483 16.23508263 -0.0179479 18.41879272 -0.02172852 C24.34062773 -0.03055072 30.26244828 -0.03290593 36.18428922 -0.0335443 C39.88909571 -0.03425602 43.59389856 -0.03639269 47.29870415 -0.03904152 C59.57106226 -0.04781335 71.84341157 -0.05246196 84.11577285 -0.05171105 C84.77639578 -0.05167109 85.43701871 -0.05163113 86.11766052 -0.05158997 C86.77909956 -0.05154909 87.4405386 -0.0515082 88.12202125 -0.05146609 C99.49049623 -0.051035 110.85892818 -0.06240669 122.22739273 -0.07733363 C132.58014656 -0.09043951 142.93288576 -0.09577256 153.28564781 -0.09513456 C159.46034095 -0.09488039 165.6349942 -0.0976864 171.80967903 -0.10831261 C177.62341194 -0.11804451 183.43706723 -0.11803804 189.25080299 -0.11079597 C191.37469853 -0.10975631 193.49859903 -0.1120759 195.62248611 -0.11815643 C210.34612227 -0.15755055 224.9204923 -0.11243889 238.94749451 4.94621277 C239.70602722 5.21047058 240.46455994 5.47472839 241.24607849 5.74699402 C254.25411456 10.38346655 264.70274965 17.34431109 275.25218201 26.18058777 C277.67248903 28.22981853 277.67248903 28.22981853 280.63499451 30.13371277 C279.97499451 29.14371277 279.31499451 28.15371277 278.63499451 27.13371277 C279.00999451 23.94621277 279.00999451 23.94621277 279.63499451 21.13371277 C286.84748301 21.86718618 291.90575418 22.64493522 296.88189983 28.37000465 C301.75156787 34.77888802 301.77111918 40.52276689 301.68450928 48.3530426 C301.69732769 49.7762111 301.71360581 51.19935187 301.73301762 52.6224457 C301.77591637 56.51066387 301.76932088 60.39742547 301.75408709 64.28579187 C301.74625412 68.48783053 301.78439889 72.68949781 301.8163147 76.89138794 C301.87108101 85.1145081 301.88205169 93.33712123 301.87613866 101.56040047 C301.87173468 108.24633324 301.88112014 114.93210934 301.90021324 121.61801529 C301.90561649 123.54631793 301.91101767 125.47462057 301.91641682 127.40292323 C301.91910713 128.36278894 301.92179744 129.32265465 301.92456927 130.3116072 C301.97321313 148.45072556 301.96899885 166.58955359 301.94924577 184.72870679 C301.93292561 201.31026995 301.98583704 217.89077527 302.07106493 234.47210006 C302.1579754 251.51315485 302.19650265 268.55370464 302.18350762 285.59498465 C302.17711266 295.15637594 302.18998919 304.71680793 302.25400734 314.27801132 C302.30802551 322.41762531 302.31646228 330.5557395 302.26661799 338.69540618 C302.24245698 342.84570593 302.23887541 346.99322453 302.2923317 351.14331245 C302.63755765 380.27514511 302.63755765 380.27514511 296.22096252 387.0952301 C285.96962916 395.25627094 267.646378 392.77866506 255.27136147 392.6437726 C250.80162154 392.60821142 246.33231607 392.64223225 241.86257935 392.66722107 C233.12215497 392.70506521 224.38305668 392.6788757 215.6427312 392.6301693 C205.46150086 392.57555492 195.28058264 392.58225188 185.09924304 392.59070262 C166.93649067 392.60344515 148.7743671 392.55688176 130.61180115 392.47843933 C112.98953629 392.40235056 95.36800759 392.37411138 77.74559021 392.39640808 C58.5425677 392.42063285 39.33986836 392.41994917 20.13687271 392.37446475 C18.09013904 392.36963565 16.04340537 392.36481171 13.99667168 392.35999298 C12.48619381 392.35637175 12.48619381 392.35637175 10.94520124 392.35267736 C3.84800837 392.33715837 -3.24906414 392.33873575 -10.34626579 392.34633636 C-18.98972349 392.35481958 -27.63253645 392.33396296 -36.27581238 392.27588215 C-40.68593793 392.24688697 -45.09512399 392.23061215 -49.50532913 392.24885559 C-53.54164191 392.26514665 -57.57601393 392.2445544 -61.61203194 392.19435129 C-63.07266409 392.18262704 -64.53347898 392.18439115 -65.99406462 392.20092359 C-76.73384921 392.31146321 -76.73384921 392.31146321 -80.34331143 389.70530844 C-81.99648961 387.6150582 -83.14155732 385.50072285 -84.36500549 383.13371277 C-85.29099415 381.78208141 -85.29099415 381.78208141 -86.23568964 380.40314436 C-91.29009578 372.79818657 -92.36216217 366.82200082 -92.20678711 357.80796814 C-92.21276808 356.51956315 -92.21874906 355.23115817 -92.22491127 353.9037106 C-92.24042812 350.36156452 -92.21275792 346.82092403 -92.17746484 343.27896953 C-92.14704431 339.44683773 -92.15747859 335.61478094 -92.16278076 331.78256226 C-92.16643928 325.15438198 -92.1446033 318.52668657 -92.10511589 311.89862823 C-92.04806264 302.31582794 -92.02997913 292.73326048 -92.02119995 283.15030876 C-92.0059051 267.6002105 -91.95939025 252.05037027 -91.89308167 236.50041199 C-91.82876213 221.4011412 -91.77924574 206.30194067 -91.74952698 191.20256042 C-91.74768791 190.27078349 -91.74584885 189.33900656 -91.74395406 188.37899396 C-91.73481835 183.70422771 -91.7259725 179.02946096 -91.71727073 174.35469389 C-91.64478331 135.61418626 -91.52156119 96.87396659 -91.36500549 58.13371277 C-91.03500549 58.13371277 -90.70500549 58.13371277 -90.36500549 58.13371277 C-90.03500549 61.76371277 -89.70500549 65.39371277 -89.36500549 69.13371277 C-89.00148987 68.03414246 -88.63797424 66.93457214 -88.26344299 65.80168152 C-80.17026263 41.76747093 -66.53403416 22.63281473 -43.67750549 10.88371277 C-29.58449566 3.9910842 -15.71071793 -0.02903168 0 0 Z " fill="#2E5A70" transform="translate(91.36500549316406,-0.1337127685546875)"/>
<path d="M0 0 C1.19012695 0.00580078 1.19012695 0.00580078 2.40429688 0.01171875 C3.19384766 0.00785156 3.98339844 0.00398438 4.796875 0 C10.71353554 0.01008808 10.71353554 0.01008808 12.96679688 1.13671875 C12.96679688 55.91671875 12.96679688 110.69671875 12.96679688 167.13671875 C14.94679688 166.80671875 16.92679688 166.47671875 18.96679688 166.13671875 C18.96457626 165.13669327 18.96235565 164.13666779 18.96006775 163.1063385 C18.93983619 153.70303536 18.92482467 144.2997366 18.9149847 134.89641666 C18.90975591 130.06155048 18.90265833 125.22670181 18.89135742 120.3918457 C18.88052841 115.72994755 18.87452001 111.06806629 18.87191963 106.40615654 C18.87006541 104.62347587 18.86644485 102.84079616 18.86106682 101.05812263 C18.85385619 98.57005915 18.85280594 96.08206632 18.85327148 93.59399414 C18.84967621 92.84953033 18.84608093 92.10506653 18.84237671 91.33804321 C18.85274471 86.25077091 18.85274471 86.25077091 19.96679688 85.13671875 C21.29723312 85.03834665 22.63273032 85.00593283 23.96679688 85.00390625 C24.77117187 85.00261719 25.57554687 85.00132813 26.40429688 85 C27.67273438 85.00580078 27.67273438 85.00580078 28.96679688 85.01171875 C30.23523438 85.00591797 30.23523438 85.00591797 31.52929688 85 C32.33367187 85.00128906 33.13804687 85.00257812 33.96679688 85.00390625 C34.70929688 85.00503418 35.45179688 85.00616211 36.21679688 85.00732422 C37.96679688 85.13671875 37.96679688 85.13671875 38.96679688 86.13671875 C39.09210842 89.08842255 39.15290818 92.01785397 39.17211914 94.97094727 C39.18201874 95.8976825 39.19191833 96.82441772 39.20211792 97.77923584 C39.23383389 100.85800579 39.25853008 103.9367912 39.28320312 107.015625 C39.30376395 109.14412346 39.32476017 111.27261776 39.34617615 113.40110779 C39.40148692 119.01529579 39.45085634 124.62952118 39.49902344 130.24377441 C39.54917288 135.96788885 39.60489309 141.69194868 39.66015625 147.41601562 C39.7678479 158.65620341 39.86926826 169.89643851 39.96679688 181.13671875 C41.61679687 181.79671875 43.26679688 182.45671875 44.96679688 183.13671875 C44.96541419 182.08674005 44.96541419 182.08674005 44.96400356 181.01554966 C44.94194898 164.00768117 44.92538564 146.9998163 44.9149847 129.99193668 C44.9098216 121.76716156 44.90277864 113.54239596 44.89135742 105.31762695 C44.88141101 98.15151429 44.87494355 90.98540852 44.87270838 83.81928915 C44.8714012 80.02254886 44.86831489 76.2258283 44.86106682 72.42909431 C44.85430727 68.85952973 44.85217978 65.28999312 44.85368919 61.72042274 C44.85328052 59.77757029 44.84788498 57.83472091 44.84237671 55.89187622 C44.84375137 54.74617661 44.84512604 53.60047699 44.84654236 52.4200592 C44.84515967 50.91707574 44.84515967 50.91707574 44.84374905 49.38372898 C44.96679688 47.13671875 44.96679688 47.13671875 45.96679688 46.13671875 C47.29723312 46.03834665 48.63273032 46.00593283 49.96679688 46.00390625 C50.77117187 46.00261719 51.57554687 46.00132813 52.40429688 46 C53.24992187 46.00386719 54.09554688 46.00773437 54.96679688 46.01171875 C56.23523438 46.00591797 56.23523438 46.00591797 57.52929688 46 C58.33367187 46.00128906 59.13804687 46.00257812 59.96679688 46.00390625 C60.70929688 46.00503418 61.45179688 46.00616211 62.21679688 46.00732422 C63.96679688 46.13671875 63.96679688 46.13671875 64.96679688 47.13671875 C65.07511503 48.80657174 65.11365419 50.48098827 65.12501526 52.15431213 C65.13969849 53.78451294 65.13969849 53.78451294 65.15467834 55.44764709 C65.16043381 56.65029709 65.16618927 57.85294708 65.17211914 59.09204102 C65.18201874 60.35039764 65.19191833 61.60875427 65.20211792 62.90524292 C65.22922964 66.36579661 65.25020513 69.82636402 65.27011991 73.28696561 C65.29194095 76.89982706 65.31934856 80.5126459 65.34617615 84.12547302 C65.39615569 90.97132292 65.44107492 97.81719641 65.48419851 104.66309255 C65.53352602 112.4550149 65.58846073 120.24689452 65.6438781 128.03877556 C65.75777889 144.07138393 65.8646002 160.10403142 65.96679688 176.13671875 C68.53623542 173.99788801 69.84155808 172.80029797 70.47181225 169.46088886 C70.47539478 167.91975564 70.47539478 167.91975564 70.47904968 166.3474884 C70.49151733 165.16545334 70.50398499 163.98341827 70.51683044 162.76556396 C70.51022903 161.47241272 70.50362762 160.17926147 70.49682617 158.84692383 C70.50392473 157.4686536 70.51278847 156.09039149 70.52328491 154.71214294 C70.54689467 150.97266507 70.54616361 147.23353603 70.54137015 143.49400163 C70.54077718 139.58396109 70.56346008 135.67406073 70.5839386 131.76408386 C70.61935651 124.35992193 70.63536835 116.95585818 70.64371377 109.55162114 C70.65667959 98.67078972 70.69489482 87.79003981 70.737813 76.90928936 C70.74095168 76.11272499 70.74409037 75.31616063 70.74732417 74.49545795 C70.7536035 72.90788492 70.75994705 71.32031214 70.76635677 69.73273963 C70.78446494 65.07153529 70.79553953 60.41037952 70.80065382 55.74914324 C70.80447425 52.85703792 70.81208235 49.96495032 70.82046127 47.072855 C70.82485405 45.08233723 70.82415904 43.09181029 70.823349 41.10128784 C70.82735718 39.92771225 70.83136536 38.75413666 70.835495 37.54499817 C70.83675227 36.51870709 70.83800955 35.49241602 70.83930492 34.43502522 C70.96679688 32.13671875 70.96679688 32.13671875 71.96679688 31.13671875 C73.29723312 31.03834665 74.63273032 31.00593283 75.96679688 31.00390625 C76.77117187 31.00261719 77.57554687 31.00132813 78.40429688 31 C79.24992187 31.00386719 80.09554688 31.00773437 80.96679688 31.01171875 C82.23523438 31.00591797 82.23523438 31.00591797 83.52929688 31 C84.33367187 31.00128906 85.13804687 31.00257812 85.96679688 31.00390625 C86.70929688 31.00503418 87.45179688 31.00616211 88.21679688 31.00732422 C89.96679688 31.13671875 89.96679688 31.13671875 90.96679688 32.13671875 C91.09221965 35.27161078 91.15293357 38.38551712 91.17211914 41.52172852 C91.18201874 42.50698517 91.19191833 43.49224182 91.20211792 44.50735474 C91.23383682 47.78091995 91.25853125 51.0544997 91.28320312 54.328125 C91.30376369 56.5911447 91.32475991 58.85416048 91.34617615 61.11717224 C91.40148954 67.0864648 91.4508578 73.05579254 91.49902344 79.02514648 C91.54917098 85.11119739 91.60489218 91.19719691 91.66015625 97.28320312 C91.7678511 109.23433116 91.86927074 121.18550371 91.96679688 133.13671875 C92.41410156 132.69199219 92.86140625 132.24726563 93.32226562 131.7890625 C95.1434983 130.08432658 96.89450193 128.52823911 98.96679688 127.13671875 C101.90429688 127.26171875 101.90429688 127.26171875 103.96679688 128.13671875 C104.05943598 141.87099077 104.13053122 155.60518858 104.17404556 169.33970928 C104.19492921 175.71706355 104.22326171 182.09420422 104.26855469 188.47143555 C104.31198371 194.62465836 104.33592812 200.77767558 104.34630585 206.93103981 C104.35370243 209.27982635 104.36814602 211.62860151 104.3897171 213.97730064 C104.41871106 217.26465638 104.42275443 220.55116023 104.42089844 223.83862305 C104.43527954 224.81182495 104.44966064 225.78502686 104.46447754 226.78771973 C104.45897888 227.68649338 104.45348022 228.58526703 104.44781494 229.51127625 C104.45150211 230.28834773 104.45518929 231.06541922 104.45898819 231.86603832 C103.73677337 235.19791152 102.43781765 236.808847 99.96679688 239.13671875 C96.92897415 239.75195789 96.92897415 239.75195789 93.29766846 239.73799133 C92.29411336 239.74439952 92.29411336 239.74439952 91.27028441 239.75093716 C89.02944234 239.75917039 86.79047409 239.73168099 84.54980469 239.7043457 C82.94332422 239.70293528 81.33684053 239.70372709 79.73036194 239.70655823 C75.36888571 239.70799405 71.00809567 239.67857784 66.64677906 239.64368844 C62.0890786 239.61245237 57.53136276 239.60949638 52.97357178 239.6035614 C44.34268188 239.58801485 35.71210827 239.54697546 27.08135772 239.49681395 C17.25561995 239.4409457 7.42986714 239.41344033 -2.39598989 239.38833678 C-22.60857091 239.33606028 -42.8208671 239.24810225 -63.03320312 239.13671875 C-62.76165405 238.20617676 -62.76165405 238.20617676 -62.48461914 237.25683594 C-61.90702985 234.54413427 -62.50993099 233.6885415 -63.97070312 231.38671875 C-64.65132812 230.31421875 -65.33195313 229.24171875 -66.03320312 228.13671875 C-66.69320312 228.13671875 -67.35320312 228.13671875 -68.03320312 228.13671875 C-67.60007813 229.18859375 -67.60007813 229.18859375 -67.15820312 230.26171875 C-66.01181353 233.19138104 -65.01793067 236.14943602 -64.03320312 239.13671875 C-65 239.17410156 -65.96679688 239.21148437 -66.96289062 239.25 C-79.47600545 239.88185035 -90.85463862 241.42524771 -99.82226562 251.05859375 C-103.0399688 255.14808843 -105.21045778 259.27606449 -107.03320312 264.13671875 C-131.32724371 266.09943298 -154.24410731 254.39994986 -172.40820312 239.19921875 C-173.25692993 238.49031494 -173.25692993 238.49031494 -174.12280273 237.76708984 C-175.46934003 236.60508194 -176.7576604 235.37624116 -178.03320312 234.13671875 C-178.03320312 233.47671875 -178.03320312 232.81671875 -178.03320312 232.13671875 C-178.69320312 232.13671875 -179.35320312 232.13671875 -180.03320312 232.13671875 C-199.49615218 211.14334977 -207.95081541 184.90266069 -207.34570312 156.55859375 C-206.2246999 130.38316854 -194.43219246 107.29417228 -176.03320312 89.13671875 C-175.14761719 88.24082031 -174.26203125 87.34492187 -173.34960938 86.421875 C-153.60173179 67.37823079 -127.44873156 59.58580949 -100.46289062 59.92578125 C-78.07120522 60.5597297 -57.04650858 69.82774152 -40.03320312 84.13671875 C-39.44410156 84.59304687 -38.855 85.049375 -38.24804688 85.51953125 C-20.94692331 99.31313773 -10.77255644 120.9879916 -6.03320312 142.13671875 C-5.76624634 143.24285522 -5.76624634 143.24285522 -5.49389648 144.37133789 C-4.91864558 147.82436755 -4.92159934 151.12416848 -4.93554688 154.625 C-4.9376693 155.67979805 -4.9376693 155.67979805 -4.93983459 156.75590515 C-4.94540204 158.98705419 -4.95794838 161.21810039 -4.97070312 163.44921875 C-4.97572234 164.9680975 -4.98028451 166.48697784 -4.984375 168.00585938 C-4.99536077 171.71617887 -5.01260278 175.42643876 -5.03320312 179.13671875 C0.52567086 175.41980534 0.52567086 175.41980534 3.67529297 169.75439453 C3.86561138 167.02997348 3.81869222 164.42534307 3.65429688 161.69921875 C3.62086182 160.7249292 3.58742676 159.75063965 3.55297852 158.74682617 C3.11664169 149.00890899 2.28796217 139.14775049 -1.72839355 130.15823364 C-7.86676764 116.27545688 -7.96423592 103.37105919 -7.75195312 88.37890625 C-7.74140896 85.85255978 -7.7338534 83.32619926 -7.72912598 80.79983521 C-7.71038961 74.88321535 -7.65990947 68.96754887 -7.59387827 63.051283 C-7.52083049 56.3060916 -7.49527453 49.56093814 -7.47069454 42.81542754 C-7.42975108 32.34800244 -7.36804407 21.88050489 -7.2578125 11.41357422 C-7.25041046 10.38103516 -7.24300842 9.34849609 -7.23538208 8.28466797 C-7.2238913 7.35153778 -7.21240051 6.41840759 -7.20056152 5.45700073 C-7.19239159 4.64192488 -7.18422165 3.82684902 -7.17580414 2.9870739 C-6.85141792 -1.22208073 -3.46059895 0.0059105 0 0 Z " fill="#E1E5EC" transform="translate(248.033203125,28.86328125)"/>
<path d="M0 0 C1.19012695 0.00580078 1.19012695 0.00580078 2.40429688 0.01171875 C3.19384766 0.00785156 3.98339844 0.00398438 4.796875 0 C10.71353554 0.01008808 10.71353554 0.01008808 12.96679688 1.13671875 C12.96679688 55.91671875 12.96679688 110.69671875 12.96679688 167.13671875 C14.94679688 166.80671875 16.92679687 166.47671875 18.96679688 166.13671875 C18.96457626 165.13669327 18.96235565 164.13666779 18.96006775 163.1063385 C18.93983619 153.70303536 18.92482467 144.2997366 18.9149847 134.89641666 C18.90975591 130.06155048 18.90265833 125.22670181 18.89135742 120.3918457 C18.88052841 115.72994755 18.87452001 111.06806629 18.87191963 106.40615654 C18.87006541 104.62347587 18.86644485 102.84079616 18.86106682 101.05812263 C18.85385619 98.57005915 18.85280594 96.08206632 18.85327148 93.59399414 C18.84967621 92.84953033 18.84608093 92.10506653 18.84237671 91.33804321 C18.85274471 86.25077091 18.85274471 86.25077091 19.96679688 85.13671875 C21.29723312 85.03834665 22.63273032 85.00593283 23.96679688 85.00390625 C24.77117187 85.00261719 25.57554687 85.00132813 26.40429688 85 C27.24992187 85.00386719 28.09554687 85.00773437 28.96679688 85.01171875 C30.23523438 85.00591797 30.23523438 85.00591797 31.52929688 85 C32.33367187 85.00128906 33.13804687 85.00257812 33.96679688 85.00390625 C34.70929688 85.00503418 35.45179688 85.00616211 36.21679688 85.00732422 C37.96679688 85.13671875 37.96679688 85.13671875 38.96679688 86.13671875 C39.09210842 89.08842255 39.15290818 92.01785397 39.17211914 94.97094727 C39.18201874 95.8976825 39.19191833 96.82441772 39.20211792 97.77923584 C39.23383389 100.85800579 39.25853008 103.9367912 39.28320312 107.015625 C39.30376395 109.14412346 39.32476017 111.27261776 39.34617615 113.40110779 C39.40148692 119.01529579 39.45085634 124.62952118 39.49902344 130.24377441 C39.54917288 135.96788885 39.60489309 141.69194868 39.66015625 147.41601562 C39.7678479 158.65620341 39.86926826 169.89643851 39.96679688 181.13671875 C41.61679687 181.79671875 43.26679688 182.45671875 44.96679688 183.13671875 C44.96587508 182.43673295 44.96495329 181.73674715 44.96400356 181.01554966 C44.94194898 164.00768117 44.92538564 146.9998163 44.9149847 129.99193668 C44.9098216 121.76716156 44.90277864 113.54239596 44.89135742 105.31762695 C44.88141101 98.15151429 44.87494355 90.98540852 44.87270838 83.81928915 C44.8714012 80.02254886 44.86831489 76.2258283 44.86106682 72.42909431 C44.85430727 68.85952973 44.85217978 65.28999312 44.85368919 61.72042274 C44.85328052 59.77757029 44.84788498 57.83472091 44.84237671 55.89187622 C44.84375137 54.74617661 44.84512604 53.60047699 44.84654236 52.4200592 C44.84562057 51.41807023 44.84469877 50.41608126 44.84374905 49.38372898 C44.96679688 47.13671875 44.96679688 47.13671875 45.96679688 46.13671875 C47.29723312 46.03834665 48.63273032 46.00593283 49.96679688 46.00390625 C50.77117187 46.00261719 51.57554687 46.00132813 52.40429688 46 C53.24992187 46.00386719 54.09554687 46.00773437 54.96679688 46.01171875 C56.23523438 46.00591797 56.23523438 46.00591797 57.52929688 46 C58.33367187 46.00128906 59.13804687 46.00257812 59.96679688 46.00390625 C60.70929688 46.00503418 61.45179688 46.00616211 62.21679688 46.00732422 C63.96679688 46.13671875 63.96679688 46.13671875 64.96679688 47.13671875 C65.07511503 48.80657174 65.11365419 50.48098827 65.12501526 52.15431213 C65.13969849 53.78451294 65.13969849 53.78451294 65.15467834 55.44764709 C65.16043381 56.65029709 65.16618927 57.85294708 65.17211914 59.09204102 C65.18201874 60.35039764 65.19191833 61.60875427 65.20211792 62.90524292 C65.22922964 66.36579661 65.25020513 69.82636402 65.27011991 73.28696561 C65.29194095 76.89982706 65.31934856 80.5126459 65.34617615 84.12547302 C65.39615569 90.97132292 65.44107492 97.81719641 65.48419851 104.66309255 C65.53352602 112.4550149 65.58846073 120.24689452 65.6438781 128.03877556 C65.75777889 144.07138393 65.8646002 160.10403142 65.96679688 176.13671875 C68.53623542 173.99788801 69.84155808 172.80029797 70.47181225 169.46088886 C70.47539478 167.91975564 70.47539478 167.91975564 70.47904968 166.3474884 C70.49775116 164.57443581 70.49775116 164.57443581 70.51683044 162.76556396 C70.51022903 161.47241272 70.50362762 160.17926147 70.49682617 158.84692383 C70.50392473 157.4686536 70.51278847 156.09039149 70.52328491 154.71214294 C70.54689467 150.97266507 70.54616361 147.23353603 70.54137015 143.49400163 C70.54077718 139.58396109 70.56346008 135.67406073 70.5839386 131.76408386 C70.61935651 124.35992193 70.63536835 116.95585818 70.64371377 109.55162114 C70.65667959 98.67078972 70.69489482 87.79003981 70.737813 76.90928936 C70.74095168 76.11272499 70.74409037 75.31616063 70.74732417 74.49545795 C70.7536035 72.90788492 70.75994705 71.32031214 70.76635677 69.73273963 C70.78446494 65.07153529 70.79553953 60.41037952 70.80065382 55.74914324 C70.80447425 52.85703792 70.81208235 49.96495032 70.82046127 47.072855 C70.82485405 45.08233723 70.82415904 43.09181029 70.823349 41.10128784 C70.82735718 39.92771225 70.83136536 38.75413666 70.835495 37.54499817 C70.83675227 36.51870709 70.83800955 35.49241602 70.83930492 34.43502522 C70.96679688 32.13671875 70.96679688 32.13671875 71.96679688 31.13671875 C73.29723312 31.03834665 74.63273032 31.00593283 75.96679688 31.00390625 C76.77117187 31.00261719 77.57554687 31.00132813 78.40429688 31 C79.24992188 31.00386719 80.09554687 31.00773437 80.96679688 31.01171875 C82.23523438 31.00591797 82.23523438 31.00591797 83.52929688 31 C84.33367187 31.00128906 85.13804687 31.00257812 85.96679688 31.00390625 C86.70929688 31.00503418 87.45179688 31.00616211 88.21679688 31.00732422 C89.96679688 31.13671875 89.96679688 31.13671875 90.96679688 32.13671875 C91.09221965 35.27161078 91.15293357 38.38551712 91.17211914 41.52172852 C91.18201874 42.50698517 91.19191833 43.49224182 91.20211792 44.50735474 C91.23383682 47.78091995 91.25853125 51.0544997 91.28320312 54.328125 C91.30376369 56.5911447 91.32475991 58.85416048 91.34617615 61.11717224 C91.40148954 67.0864648 91.4508578 73.05579254 91.49902344 79.02514648 C91.54917098 85.11119739 91.60489218 91.19719691 91.66015625 97.28320312 C91.7678511 109.23433116 91.86927074 121.18550371 91.96679688 133.13671875 C92.41410156 132.69199219 92.86140625 132.24726563 93.32226562 131.7890625 C95.1434983 130.08432658 96.89450193 128.52823911 98.96679688 127.13671875 C101.90429688 127.26171875 101.90429688 127.26171875 103.96679688 128.13671875 C104.05943598 141.87099077 104.13053122 155.60518858 104.17404556 169.33970928 C104.19492921 175.71706355 104.22326171 182.09420422 104.26855469 188.47143555 C104.31198371 194.62465836 104.33592812 200.77767558 104.34630585 206.93103981 C104.35370243 209.27982635 104.36814602 211.62860151 104.3897171 213.97730064 C104.41871106 217.26465638 104.42275443 220.55116023 104.42089844 223.83862305 C104.43527954 224.81182495 104.44966064 225.78502686 104.46447754 226.78771973 C104.45897888 227.68649338 104.45348022 228.58526703 104.44781494 229.51127625 C104.45150211 230.28834773 104.45518929 231.06541922 104.45898819 231.86603832 C103.73677337 235.19791152 102.43781765 236.808847 99.96679688 239.13671875 C96.92897415 239.75195789 96.92897415 239.75195789 93.29766846 239.73799133 C92.29411336 239.74439952 92.29411336 239.74439952 91.27028441 239.75093716 C89.02944234 239.75917039 86.79047409 239.73168099 84.54980469 239.7043457 C82.94332422 239.70293528 81.33684053 239.70372709 79.73036194 239.70655823 C75.36888571 239.70799405 71.00809567 239.67857784 66.64677906 239.64368844 C62.0890786 239.61245237 57.53136276 239.60949638 52.97357178 239.6035614 C44.34268188 239.58801485 35.71210827 239.54697546 27.08135772 239.49681395 C17.25561995 239.4409457 7.42986714 239.41344033 -2.39598989 239.38833678 C-22.60857091 239.33606028 -42.8208671 239.24810225 -63.03320312 239.13671875 C-60.54056244 236.52625886 -58.20808807 235.07489838 -54.97070312 233.44921875 C-39.4338806 225.13834926 -29.00693705 212.2402837 -19.03320312 198.13671875 C-18.09529366 196.82358074 -17.15650094 195.51107312 -16.21679688 194.19921875 C-14.51550046 191.82360024 -12.81908058 189.44465557 -11.12695312 187.0625 C-10.09054688 185.61423828 -10.09054688 185.61423828 -9.03320312 184.13671875 C-8.54207031 183.40582031 -8.0509375 182.67492187 -7.54492188 181.921875 C-6.03320312 180.13671875 -6.03320312 180.13671875 -3.77148438 178.76953125 C-0.63669788 176.82101662 0.98606342 175.28806973 2.96679688 172.13671875 C5.58833147 159.28148985 3.60574395 142.09754073 -1.72839355 130.15823364 C-7.86676764 116.27545688 -7.96423592 103.37105919 -7.75195312 88.37890625 C-7.74140896 85.85255978 -7.7338534 83.32619926 -7.72912598 80.79983521 C-7.71038961 74.88321535 -7.65990947 68.96754887 -7.59387827 63.051283 C-7.52083049 56.3060916 -7.49527453 49.56093814 -7.47069454 42.81542754 C-7.42975108 32.34800244 -7.36804407 21.88050489 -7.2578125 11.41357422 C-7.24670944 9.86476563 -7.24670944 9.86476563 -7.23538208 8.28466797 C-7.2181459 6.88497269 -7.2181459 6.88497269 -7.20056152 5.45700073 C-7.19239159 4.64192488 -7.18422165 3.82684902 -7.17580414 2.9870739 C-6.85141792 -1.22208073 -3.46059895 0.0059105 0 0 Z " fill="#5ECDDA" transform="translate(248.033203125,28.86328125)"/>
<path d="M0 0 C7.2124885 0.73347341 12.27075968 1.51122245 17.24690533 7.23629189 C22.11657337 13.64517525 22.13612467 19.38905412 22.04951477 27.21932983 C22.06233318 28.64249833 22.0786113 30.0656391 22.09802312 31.48873293 C22.14092186 35.37695111 22.13432637 39.2637127 22.11909258 43.15207911 C22.11125961 47.35411776 22.14940438 51.55578504 22.18132019 55.75767517 C22.23608651 63.98079533 22.24705718 72.20340846 22.24114416 80.4266877 C22.23674017 87.11262048 22.24612563 93.79839658 22.26521873 100.48430252 C22.27062198 102.41260516 22.27602317 104.34090781 22.28142232 106.26921046 C22.28411262 107.22907617 22.28680293 108.18894188 22.28957476 109.17789443 C22.33821863 127.31701279 22.33400434 145.45584082 22.31425127 163.59499402 C22.29793111 180.17655718 22.35084254 196.7570625 22.43607042 213.3383873 C22.5229809 230.37944208 22.56150815 247.41999187 22.54851311 264.46127188 C22.54211816 274.02266317 22.55499468 283.58309517 22.61901283 293.14429855 C22.673031 301.28391254 22.68146778 309.42202673 22.63162348 317.56169342 C22.60746247 321.71199316 22.6038809 325.85951176 22.65733719 330.00959969 C23.00256315 359.14143234 23.00256315 359.14143234 16.58596802 365.96151733 C6.33463465 374.12255817 -11.98861651 371.64495229 -24.36363304 371.51005983 C-28.83337297 371.47449866 -33.30267844 371.50851948 -37.77241516 371.5335083 C-46.51283954 371.57135244 -55.25193782 371.54516293 -63.99226331 371.49645653 C-74.17349364 371.44184215 -84.35441187 371.44853912 -94.53575147 371.45698985 C-112.69850384 371.46973238 -130.8606274 371.42316899 -149.02319336 371.34472656 C-166.64545822 371.26863779 -184.26698692 371.24039861 -201.8894043 371.26269531 C-221.09242681 371.28692008 -240.29512615 371.2862364 -259.4981218 371.24075198 C-261.54485546 371.23592288 -263.59158914 371.23109894 -265.63832283 371.22628021 C-267.1488007 371.22265898 -267.1488007 371.22265898 -268.68979327 371.21896459 C-275.78698613 371.20344561 -282.88405865 371.20502298 -289.9812603 371.2126236 C-298.624718 371.22110681 -307.26753095 371.20025019 -315.91080689 371.14216939 C-320.32093244 371.1131742 -324.73011849 371.09689938 -329.14032364 371.11514282 C-333.17663642 371.13143388 -337.21100844 371.11084163 -341.24702645 371.06063852 C-342.7076586 371.04891427 -344.16847349 371.05067839 -345.62905913 371.06721082 C-356.36884372 371.17775045 -356.36884372 371.17775045 -359.97830594 368.57159567 C-361.63148412 366.48134543 -362.77655183 364.36701008 -364 362 C-364.92598865 360.64836864 -364.92598865 360.64836864 -365.87068415 359.26943159 C-370.92509029 351.6644738 -371.99715668 345.68828805 -371.84178162 336.67425537 C-371.84776259 335.38585038 -371.85374356 334.0974454 -371.85990578 332.76999784 C-371.87542263 329.22785176 -371.84775242 325.68721126 -371.81245935 322.14525676 C-371.78203881 318.31312497 -371.7924731 314.48106817 -371.79777527 310.64884949 C-371.80143379 304.02066921 -371.77959781 297.3929738 -371.7401104 290.76491547 C-371.68305715 281.18211517 -371.66497364 271.59954771 -371.65619446 262.01659599 C-371.64089961 246.46649773 -371.59438476 230.9166575 -371.52807617 215.36669922 C-371.46375664 200.26742843 -371.41424025 185.1682279 -371.38452148 170.06884766 C-371.38268242 169.13707072 -371.38084336 168.20529379 -371.37894856 167.24528119 C-371.36981285 162.57051494 -371.360967 157.8957482 -371.35226524 153.22098112 C-371.27977782 114.48047349 -371.15655569 75.74025382 -371 37 C-370.67 37 -370.34 37 -370 37 C-369.67 40.63 -369.34 44.26 -369 48 C-368.34 47.01 -367.68 46.02 -367 45 C-367.21150664 46.3469803 -367.21150664 46.3469803 -367.42728615 47.72117233 C-369.11316154 59.55985647 -369.29712867 71.21006982 -369.29052734 83.15332031 C-369.2965248 85.33995286 -369.3033331 87.52658332 -369.31088257 89.71321106 C-369.32842385 95.60805807 -369.33323284 101.50284688 -369.33451414 107.39771748 C-369.33594282 111.09189 -369.34022586 114.78604807 -369.34550858 118.48021698 C-369.36396811 131.39974393 -369.37218413 144.31922983 -369.37060547 157.23876953 C-369.36940452 169.23119385 -369.39050841 181.22339702 -369.4220928 193.21578336 C-369.44834362 203.55604426 -369.45896912 213.89624664 -369.45769465 224.23654056 C-369.4571877 230.39287849 -369.46272262 236.54905605 -369.48405075 242.70536041 C-369.50358276 248.50041192 -369.50345637 254.29515245 -369.48901749 260.09021568 C-369.48694688 262.20073342 -369.4915241 264.31127143 -369.5037384 266.42175484 C-369.65950438 295.23226457 -363.78274323 320.8387631 -343 342 C-342.26265625 342.76183594 -341.5253125 343.52367187 -340.765625 344.30859375 C-327.45310459 357.19672173 -308.32125293 366.04726328 -289.72851562 366.22119141 C-288.47837173 366.23845024 -288.47837173 366.23845024 -287.20297241 366.25605774 C-284.4374357 366.2928167 -281.67187732 366.32247359 -278.90625 366.3515625 C-276.96121963 366.37472324 -275.01619198 366.39811382 -273.07116699 366.42172241 C-268.9755338 366.47024846 -264.87987972 366.51512073 -260.78417969 366.55761719 C-256.63761592 366.60095966 -252.49116843 366.64937697 -248.34472656 366.703125 C-227.36193988 366.97504349 -206.45785748 367.13557081 -185.48974609 366.20898438 C-178.81933275 365.92442223 -172.23072704 366.09363393 -165.5625 366.4375 C-150.25128124 367.06346157 -134.94769135 367.11797189 -119.625 367.125 C-118.4200589 367.12740692 -117.2151178 367.12981384 -115.97366333 367.1322937 C-112.53710084 367.13818701 -109.10062614 367.13683939 -105.6640625 367.1328125 C-104.61662369 367.13480148 -103.56918488 367.13679047 -102.49000549 367.13883972 C-101.05176674 367.13416435 -101.05176674 367.13416435 -99.58447266 367.12939453 C-98.74389313 367.12859894 -97.9033136 367.12780334 -97.03726196 367.12698364 C-94.9323303 367.128959 -94.9323303 367.128959 -93 366 C-90.71697452 365.93780993 -88.43208143 365.94035557 -86.1484375 365.97265625 C-84.72396108 365.98533868 -83.29948175 365.99769679 -81.875 366.00976562 C-79.64866819 366.03420688 -77.4224934 366.06177089 -75.19628906 366.09594727 C-54.69886369 366.39665668 -54.69886369 366.39665668 -35.1875 360.8125 C-34.48230225 360.50425293 -33.77710449 360.19600586 -33.05053711 359.87841797 C-22.65601886 355.2055766 -14.11390739 348.98218811 -6 341 C-4.83984375 339.85917969 -4.83984375 339.85917969 -3.65625 338.6953125 C6.53276113 328.05268101 11.98494777 315.97107606 16 302 C16.23460937 301.2059375 16.46921875 300.411875 16.7109375 299.59375 C18.87048883 291.70669297 19.14888177 283.64927197 19.14044189 275.52146912 C19.14341302 274.61035262 19.14638414 273.69923612 19.1494453 272.76051003 C19.15806508 269.73022308 19.15963481 266.69997594 19.16113281 263.66967773 C19.16576577 261.48744117 19.17079107 259.30520541 19.17617798 257.12297058 C19.18925844 251.20939498 19.19573849 245.29583071 19.20018864 239.38224292 C19.20312657 235.68161096 19.20723274 231.98098205 19.21169281 228.28035164 C19.22535665 216.68432806 19.23502859 205.0883115 19.2388947 193.49228042 C19.23933679 192.17378052 19.23977889 190.85528062 19.24023438 189.49682617 C19.2404558 188.83621494 19.24067723 188.17560372 19.24090537 187.49497396 C19.24509333 176.14097993 19.26524891 164.78706887 19.2898953 153.43310207 C19.31156313 143.08965423 19.32160171 132.74623513 19.32293582 122.40276486 C19.32398024 116.23529647 19.32981059 110.06792462 19.34775543 103.90048027 C19.36432437 98.09327116 19.36634903 92.28623025 19.35761642 86.47900581 C19.35685074 84.35875114 19.3611262 82.23848709 19.37107468 80.11825562 C19.49499446 52.04076975 13.74770664 27.88200016 -6.0546875 7.0859375 C-7.86532937 5.14440585 -9.45096017 3.15306795 -11 1 C-7.96147295 2.40976705 -5.4060405 4.08870228 -2.75 6.125 C-1.69039063 6.93324219 -1.69039063 6.93324219 -0.609375 7.7578125 C-0.07828125 8.16773438 0.4528125 8.57765625 1 9 C0.34 8.01 -0.32 7.02 -1 6 C-0.625 2.8125 -0.625 2.8125 0 0 Z " fill="#0A0D1A" transform="translate(371,21)"/>
<path d="M0 0 C3.375 2 3.375 2 6 4 C5.34 4.33 4.68 4.66 4 5 C2.32459336 4.35561283 0.65816784 3.68753301 -1 3 C-8.20234867 3 -15.897514 10.26401682 -21.08984375 14.9765625 C-24.12058203 18.18703782 -26.62826407 21.7283643 -29.140625 25.3515625 C-31 28 -31 28 -33.203125 30.66796875 C-35.18833112 32.87850779 -35.18833112 32.87850779 -35.5 35.6875 C-35.665 36.450625 -35.83 37.21375 -36 38 C-37.9375 39.125 -37.9375 39.125 -40 40 C-40.66 40.99 -41.32 41.98 -42 43 C-41.01 43.495 -41.01 43.495 -40 44 C-40 44.66 -40 45.32 -40 46 C-39.01 46 -38.02 46 -37 46 C-37 45.34 -37 44.68 -37 44 C-20.30738546 35.54681021 -4.47218394 27.63571719 14.375 33.1328125 C16.6636886 33.88889713 18.84501113 34.74864382 21.0625 35.6875 C29.40305421 38.85115849 36.29367245 36.9210282 44.23828125 33.484375 C47.14891435 31.91996117 49.48848664 30.14096221 52 28 C52.96873047 27.18789062 52.96873047 27.18789062 53.95703125 26.359375 C57.48819703 23.29655331 60.86285055 20.16197277 64.125 16.8125 C67.19040341 13.70518677 70.2553281 11.2793655 74 9 C75.546875 7.88625 75.546875 7.88625 77.125 6.75 C80 5 80 5 84 5 C84.09279724 12.60616489 84.1638141 20.21227087 84.20724869 27.81887341 C84.22809843 31.35121382 84.25636679 34.88316613 84.30175781 38.4152832 C84.35364825 42.47871567 84.37296666 46.54174228 84.390625 50.60546875 C84.41127014 51.8702153 84.43191528 53.13496185 84.45318604 54.43803406 C84.45348816 55.61888077 84.45379028 56.79972748 84.45410156 58.01635742 C84.46298401 59.05338303 84.47186646 60.09040863 84.48101807 61.15885925 C83.8555255 64.8533409 82.6450393 66.3636369 80 69 C77.08711624 69.61523914 77.08711624 69.61523914 73.63458252 69.60127258 C72.32488998 69.6081459 71.01519745 69.61501923 69.66581726 69.62210083 C68.21633338 69.60440603 66.76685529 69.58623199 65.31738281 69.56762695 C63.7897191 69.56621646 62.262052 69.5670085 60.73439026 69.56983948 C56.58776847 69.571275 52.44186878 69.5418638 48.29541492 69.50696969 C43.96193406 69.47572859 39.62843694 69.47277724 35.29486084 69.46684265 C27.08895464 69.45129756 18.88338122 69.41026021 10.6776216 69.3600952 C1.3355529 69.30422235 -8.00653163 69.27672044 -17.3487258 69.25161803 C-36.56600592 69.19934485 -55.78297621 69.11138974 -75 69 C-72.29795028 66.18705633 -69.40466117 64.24996384 -66.125 62.125 C-50.96593327 51.84062191 -41.05017026 37.69768103 -30.79296875 22.79296875 C-13.17319231 -2.29098997 -13.17319231 -2.29098997 0 0 Z " fill="#4B8FDA" transform="translate(268,199)"/>
<path d="M0 0 C0 14.85 0 29.7 0 45 C-3.96 46.98 -3.96 46.98 -8 49 C-10.5609294 50.79857668 -10.5609294 50.79857668 -13 53 C-13.59425781 53.50402344 -14.18851562 54.00804687 -14.80078125 54.52734375 C-18.40150178 57.6106792 -21.81717683 60.79113089 -25.125 64.1875 C-32.0004739 71.11627215 -42.26242297 77.93583697 -52.3125 78.375 C-58.2817152 78.34866523 -63.29830366 76.35419419 -68.80078125 74.19140625 C-81.29592553 69.53814739 -93.92061225 72.72542558 -105.67578125 78.046875 C-108.67751273 79.45135487 -111.64756463 80.9119595 -114.61328125 82.390625 C-118 84 -118 84 -120 84 C-120 84.66 -120 85.32 -120 86 C-120.99 86 -121.98 86 -123 86 C-123 85.34 -123 84.68 -123 84 C-123.99 83.67 -124.98 83.34 -126 83 C-121.25 77.125 -121.25 77.125 -119 76 C-118.9175 75.29875 -118.835 74.5975 -118.75 73.875 C-117.82453483 70.32738353 -116.2332464 68.68196163 -113.79296875 66.015625 C-111.81048259 63.78694774 -110.04879099 61.44142844 -108.25 59.0625 C-102.49485579 51.83280641 -95.30404504 46.06728737 -87 42 C-81.63580094 42 -76.12994657 44.10720212 -72.10546875 47.68359375 C-70.99408507 48.89388277 -69.88340685 50.10481999 -68.7734375 51.31640625 C-64.61452855 55.26462158 -59.71037535 56.77930641 -54.125 57.5 C-45.90930503 57.02348969 -38.93607225 53.53134005 -33 48 C-26.20828973 39.26780108 -21.31441232 29.13235579 -16.42529297 19.26025391 C-6.71410156 0 -6.71410156 0 0 0 Z " fill="#51B7D8" transform="translate(351,159)"/>
<path d="M0 0 C0.804375 -0.00128906 1.60875 -0.00257812 2.4375 -0.00390625 C3.283125 -0.00003906 4.12875 0.00382812 5 0.0078125 C6.2684375 0.00201172 6.2684375 0.00201172 7.5625 -0.00390625 C8.366875 -0.00261719 9.17125 -0.00132813 10 0 C10.7425 0.00112793 11.485 0.00225586 12.25 0.00341797 C14 0.1328125 14 0.1328125 15 1.1328125 C15.10837866 2.82801085 15.14686179 4.52771229 15.15821838 6.22633362 C15.1680072 7.32996246 15.17779602 8.43359131 15.18788147 9.57066345 C15.19651466 11.40269066 15.19651466 11.40269066 15.20532227 13.27172852 C15.21522186 14.54959229 15.22512146 15.82745605 15.23532104 17.14404297 C15.2624333 20.65831426 15.28340851 24.17259908 15.30332303 27.68691754 C15.32514374 31.35583304 15.35255152 35.02470657 15.37937927 38.69358826 C15.42935927 45.64568641 15.47427833 52.59780779 15.51740164 59.54995149 C15.56672876 67.4627901 15.62166361 75.37558662 15.67708123 83.28838456 C15.79098271 99.56982177 15.89780387 115.85129752 16 132.1328125 C14.56429734 132.94848424 13.12636566 133.76023343 11.6875 134.5703125 C10.48673828 135.24900391 10.48673828 135.24900391 9.26171875 135.94140625 C5.62207488 137.85866252 2.8649014 138.24794109 -1.1875 138.1953125 C-2.08855469 138.18628906 -2.98960937 138.17726562 -3.91796875 138.16796875 C-4.94857422 138.15056641 -4.94857422 138.15056641 -6 138.1328125 C-5.89289999 120.28746007 -5.78016396 102.44215266 -5.66066074 84.59687901 C-5.60530959 76.31158949 -5.55182455 68.02629567 -5.50268555 59.7409668 C-5.45986682 52.5220894 -5.41359477 45.30324395 -5.36312145 38.08441585 C-5.33650181 34.25974872 -5.31164836 30.435088 -5.29092598 26.61038399 C-5.27138903 23.01452358 -5.24725428 19.4187241 -5.21950912 15.82291794 C-5.20562911 13.86577654 -5.19669933 11.90860203 -5.18788147 9.95143127 C-5.17809265 8.7973175 -5.16830383 7.64320374 -5.15821838 6.45411682 C-5.15176583 5.4447535 -5.14531328 4.43539019 -5.1386652 3.3954401 C-4.90369405 -0.43863086 -3.43107619 0.00521214 0 0 Z " fill="#58B7DA" transform="translate(298,74.8671875)"/>
<path d="M0 0 C0.804375 -0.00128906 1.60875 -0.00257812 2.4375 -0.00390625 C3.283125 -0.00003906 4.12875 0.00382812 5 0.0078125 C6.2684375 0.00201172 6.2684375 0.00201172 7.5625 -0.00390625 C8.366875 -0.00261719 9.17125 -0.00132813 10 0 C10.7425 0.00112793 11.485 0.00225586 12.25 0.00341797 C14 0.1328125 14 0.1328125 15 1.1328125 C15.09526806 4.08527604 15.12552452 7.01429671 15.11352539 9.96704102 C15.11367142 10.89377625 15.11381744 11.82051147 15.1139679 12.77532959 C15.11326838 15.85414937 15.10547421 18.93290947 15.09765625 22.01171875 C15.09579221 24.14021268 15.09436824 26.26870703 15.09336853 28.39720154 C15.08954228 34.0114357 15.07971108 39.62564418 15.06866455 45.23986816 C15.05845273 50.96394503 15.0538714 56.68802603 15.04882812 62.41210938 C15.03808891 73.65235506 15.0210112 84.89258165 15 96.1328125 C13.8774 95.17094676 12.75485125 94.20902121 11.63232422 93.24707031 C11.0071994 92.71140442 10.38207458 92.17573853 9.73800659 91.62384033 C8.45099617 90.51972004 7.16628138 89.41292262 5.8828125 88.3046875 C1.16758768 84.49059454 -3.00280914 82.9379909 -9 82.1328125 C-7.02 81.6378125 -7.02 81.6378125 -5 81.1328125 C-5.00333092 79.63277428 -5.00333092 79.63277428 -5.00672913 78.10243225 C-5.02696068 68.69912911 -5.0419722 59.29583035 -5.05181217 49.89251041 C-5.05704097 45.05764423 -5.06413854 40.22279556 -5.07543945 35.38793945 C-5.08626847 30.7260413 -5.09227686 26.06416004 -5.09487724 21.40225029 C-5.09673147 19.61956962 -5.10035203 17.83688991 -5.10573006 16.05421638 C-5.11294069 13.5661529 -5.11399093 11.07816007 -5.11352539 8.59008789 C-5.1189183 7.47339218 -5.1189183 7.47339218 -5.12442017 6.33413696 C-5.11152684 0.00776491 -5.11152684 0.00776491 0 0 Z " fill="#56AADB" transform="translate(272,113.8671875)"/>
<path d="M0 0 C2.79224073 -0.08071788 5.58216566 -0.14035408 8.375 -0.1875 C9.1690625 -0.21263672 9.963125 -0.23777344 10.78125 -0.26367188 C12.85586148 -0.29004405 14.93100865 -0.15486462 17 0 C19.42669283 3.64003924 19.26911387 6.2972515 19.22705078 10.50073242 C19.22734283 11.26194901 19.22763489 12.02316559 19.22793579 12.80744934 C19.22654243 15.32357176 19.21098107 17.83939806 19.1953125 20.35546875 C19.19158239 22.09995868 19.18873541 23.84445071 19.18673706 25.58894348 C19.17910045 30.18063134 19.15945171 34.77219269 19.1373291 39.36383057 C19.11687129 44.04917693 19.10773548 48.73454373 19.09765625 53.41992188 C19.07620585 62.61333683 19.04206955 71.8066579 19 81 C18.31035156 80.55269531 17.62070313 80.10539062 16.91015625 79.64453125 C11.04878888 75.87363784 5.14365212 72.29178398 -1 69 C-1.02314169 60.29883071 -1.04092443 51.59767197 -1.05181217 42.89647865 C-1.05703699 38.85643046 -1.06412739 34.81640328 -1.07543945 30.77636719 C-1.08628254 26.879559 -1.09227987 22.98277105 -1.09487724 19.08594894 C-1.09672892 17.59715837 -1.10034463 16.10836893 -1.10573006 14.61958694 C-1.11295934 12.53884715 -1.11399014 10.45819168 -1.11352539 8.37744141 C-1.115746 7.19163483 -1.11796661 6.00582825 -1.12025452 4.78408813 C-1 2 -1 2 0 0 Z " fill="#69EBD7" transform="translate(190,22)"/>
<path d="M0 0 C1.32 0.66 2.64 1.32 4 2 C4.33 15.2 4.66 28.4 5 42 C11.51415693 33.53312385 11.51415693 33.53312385 18.0234375 25.0625 C18.79945313 24.051875 19.57546875 23.04125 20.375 22 C21.16648438 20.96875 21.95796875 19.9375 22.7734375 18.875 C24.82316366 16.22833605 26.90065825 13.60740163 29 11 C31.475 11.495 31.475 11.495 34 12 C33.64028141 17.88139887 31.17263751 20.83073582 27.5 25.125 C26.40733781 26.44405787 25.31621001 27.76438817 24.2265625 29.0859375 C23.68290039 29.74045898 23.13923828 30.39498047 22.57910156 31.06933594 C20.26200764 33.90229493 18.05840312 36.81341454 15.875 39.75 C15.17117187 40.69359375 14.46734375 41.6371875 13.7421875 42.609375 C12.4538988 44.37716129 11.21335595 46.17996608 10 48 C11.62010986 48.029729 11.62010986 48.029729 13.27294922 48.06005859 C17.27253913 48.13601623 21.27176052 48.22474816 25.27099609 48.31738281 C27.00334407 48.35571341 28.73577274 48.39055906 30.46826172 48.421875 C32.95569749 48.46743765 35.44257566 48.52544503 37.9296875 48.5859375 C38.70682098 48.59748871 39.48395447 48.60903992 40.28463745 48.62094116 C45.77225659 48.77225659 45.77225659 48.77225659 48 51 C47.46428571 54.53571429 47.46428571 54.53571429 46 56 C43.22521317 56.12312902 40.47145999 56.18611654 37.6953125 56.2109375 C35.98045921 56.23900645 34.26561558 56.26767091 32.55078125 56.296875 C29.83610302 56.33816288 27.12160511 56.37503293 24.40673828 56.40136719 C21.794213 56.42893249 19.18251905 56.47480541 16.5703125 56.5234375 C15.7577298 56.52669037 14.94514709 56.52994324 14.10794067 56.53329468 C9.9130065 56.42787754 9.9130065 56.42787754 6.50778198 58.49478149 C5 60 5 60 1.0625 60.5 C-2.2044763 60.36136447 -2.88664734 60.09123507 -5.5625 57.9375 C-7.42105712 54.13957894 -7.06681329 52.03865032 -6 48 C-5.34 47.34 -4.68 46.68 -4 46 C-3.69116263 44.08364127 -3.69116263 44.08364127 -3.72875977 41.87329102 C-3.71857315 41.02223282 -3.70838654 40.17117462 -3.69789124 39.29432678 C-3.69575119 38.37348801 -3.69361115 37.45264923 -3.69140625 36.50390625 C-3.66624912 34.56445008 -3.64085106 32.62499703 -3.61523438 30.68554688 C-3.58645764 27.61971825 -3.56244768 24.55394365 -3.54370117 21.48803711 C-3.5220955 18.53470835 -3.4826613 15.58201616 -3.44140625 12.62890625 C-3.44129044 11.71009171 -3.44117462 10.79127716 -3.4410553 9.84461975 C-3.42104713 8.56330421 -3.42104713 8.56330421 -3.40063477 7.25610352 C-3.39556412 6.50490738 -3.39049347 5.75371124 -3.38526917 4.97975159 C-2.90251536 2.49906354 -1.90688488 1.59535383 0 0 Z " fill="#283B58" transform="translate(142,139)"/>
<path d="M0 0 C3.14581423 -0.02888514 6.29159469 -0.04675923 9.4375 -0.0625 C10.33533203 -0.07087891 11.23316406 -0.07925781 12.15820312 -0.08789062 C13.01220703 -0.09111328 13.86621094 -0.09433594 14.74609375 -0.09765625 C15.93223267 -0.10551147 15.93223267 -0.10551147 17.14233398 -0.11352539 C19 0 19 0 20 1 C20.0927833 2.38160115 20.11747043 3.76788038 20.11352539 5.15258789 C20.11344986 6.03342545 20.11337433 6.914263 20.11329651 7.8217926 C20.10813522 8.77907761 20.10297394 9.73636261 20.09765625 10.72265625 C20.0962413 11.69786728 20.09482635 12.67307831 20.09336853 13.67784119 C20.08775133 16.80609143 20.07519593 19.93427123 20.0625 23.0625 C20.05748722 25.17773334 20.05292393 27.29296781 20.04882812 29.40820312 C20.03777631 34.60549296 20.02102146 39.80274145 20 45 C14.6590381 39.75751209 14.6590381 39.75751209 12.5 36.80859375 C12.0875 36.25623047 11.675 35.70386719 11.25 35.13476562 C10.41480035 34.0007211 9.5814731 32.86529526 8.75 31.72851562 C6.72094825 29.0178293 5.13852981 27.08273039 2.20703125 25.33203125 C-1.00453645 21.93856945 -0.51078938 19.00964211 -0.43945312 14.47265625 C-0.39755859 13.40917969 -0.35566406 12.34570312 -0.3125 11.25 C-0.28994141 10.17105469 -0.26738281 9.09210938 -0.24414062 7.98046875 C-0.1852565 5.3189065 -0.10307001 2.66015772 0 0 Z " fill="#60D2DD" transform="translate(215,86)"/>
<path d="M0 0 C7.27228818 0.73955473 12.28226223 1.52013605 17.26367188 7.32568359 C21.87251432 13.37374012 22.05192166 18.38434414 21.78125 25.7890625 C21.76993042 26.97349945 21.75861084 28.1579364 21.74694824 29.37826538 C21.70247683 33.12888358 21.60215685 36.87555466 21.5 40.625 C21.45983579 43.18093404 21.42334022 45.73692852 21.390625 48.29296875 C21.30283733 54.5299726 21.16929186 60.76470428 21 67 C20.67 67 20.34 67 20 67 C19.91024902 66.41734375 19.82049805 65.8346875 19.72802734 65.234375 C16.11809226 42.36096318 10.19961087 24.15586374 -6.0546875 7.0859375 C-7.86532937 5.14440585 -9.45096017 3.15306795 -11 1 C-7.96147295 2.40976705 -5.4060405 4.08870228 -2.75 6.125 C-2.04359375 6.66382813 -1.3371875 7.20265625 -0.609375 7.7578125 C-0.07828125 8.16773438 0.4528125 8.57765625 1 9 C0.34 8.01 -0.32 7.02 -1 6 C-0.625 2.8125 -0.625 2.8125 0 0 Z " fill="#1B2534" transform="translate(371,21)"/>
<path d="M0 0 C0.804375 -0.00128906 1.60875 -0.00257812 2.4375 -0.00390625 C3.283125 -0.00003906 4.12875 0.00382812 5 0.0078125 C6.2684375 0.00201172 6.2684375 0.00201172 7.5625 -0.00390625 C8.366875 -0.00261719 9.17125 -0.00132813 10 0 C10.7425 0.00112793 11.485 0.00225586 12.25 0.00341797 C14 0.1328125 14 0.1328125 15 1.1328125 C15.08843793 3.58111676 15.11528752 6.00101849 15.09765625 8.44921875 C15.0962413 9.18027328 15.09482635 9.91132782 15.09336853 10.66453552 C15.08775408 13.00816882 15.07519922 15.35170789 15.0625 17.6953125 C15.05748686 19.28059758 15.05292363 20.86588416 15.04882812 22.45117188 C15.03777997 26.3450886 15.02050572 30.23893455 15 34.1328125 C14.31035156 33.93945312 13.62070313 33.74609375 12.91015625 33.546875 C6.96828666 31.90043103 1.03029017 30.41795631 -5 29.1328125 C-5.02465881 25.16350261 -5.04284023 21.19422216 -5.05493164 17.22485352 C-5.05997057 15.87360864 -5.06680177 14.52236924 -5.07543945 13.17114258 C-5.08752419 11.23260816 -5.09269828 9.2940345 -5.09765625 7.35546875 C-5.10289307 6.18765869 -5.10812988 5.01984863 -5.11352539 3.81665039 C-4.93671006 -0.36341603 -3.78396011 0.0057482 0 0 Z " fill="#68E7DB" transform="translate(168,53.8671875)"/>
<path d="M0 0 C0 15.51 0 31.02 0 47 C-0.33 47 -0.66 47 -1 47 C-1 32.15 -1 17.3 -1 2 C-7.83691214 6.77496474 -7.83691214 6.77496474 -11.8125 13.125 C-12.13742432 13.71974121 -12.46234863 14.31448242 -12.79711914 14.92724609 C-14.72997811 18.49315513 -16.56863524 22.10704803 -18.4140625 25.71875 C-32.73339032 53.65148398 -32.73339032 53.65148398 -47.5625 59.375 C-56.24395914 60.95344712 -61.5954538 59.8512544 -69 55 C-70.87269171 53.31879006 -72.57557086 51.55290191 -74.29296875 49.71484375 C-78.40295831 45.58604417 -82.55601659 42.70846643 -88.5 42.6875 C-90.2325 42.8421875 -90.2325 42.8421875 -92 43 C-92 42.34 -92 41.68 -92 41 C-93.98 41.495 -93.98 41.495 -96 42 C-95 40 -95 40 -92 39 C-85.10623673 38.01695434 -80.67340077 39.06549274 -75.09375 43.2109375 C-72.43565103 45.48222356 -70.03261433 47.94436832 -67.6015625 50.453125 C-63.85371061 54.07300146 -60.27402479 55.18631359 -55.1875 55.4375 C-49.77457096 55.29032066 -45.75005552 53.41873993 -41 51 C-40.01 50.67 -39.02 50.34 -38 50 C-37.29605388 48.68596724 -36.63654342 47.3479743 -36 46 C-35.07634644 44.87198975 -35.07634644 44.87198975 -34.1340332 43.72119141 C-31.98605918 40.9822235 -30.40834562 38.28982034 -28.79296875 35.2109375 C-28.20580078 34.10363281 -27.61863281 32.99632812 -27.01367188 31.85546875 C-26.41103516 30.70691406 -25.80839844 29.55835938 -25.1875 28.375 C-9.30729761 -1.86145952 -9.30729761 -1.86145952 0 0 Z " fill="#60E9DC" transform="translate(352,157)"/>
<path d="M0 0 C15.52021334 0.60924259 31.03142596 0.68036482 46.5625 0.6875 C48.367117 0.69111038 48.367117 0.69111038 50.20819092 0.6947937 C53.63752082 0.70068501 57.06676272 0.69934088 60.49609375 0.6953125 C62.06249352 0.69829597 62.06249352 0.69829597 63.66053772 0.70133972 C64.61617111 0.69822281 65.5718045 0.6951059 66.55639648 0.69189453 C67.39395981 0.69109894 68.23152313 0.69030334 69.09446716 0.68948364 C71.19366609 0.69088188 71.19366609 0.69088188 73.125 -0.4375 C76.11470289 -0.52455146 79.08084955 -0.55300145 82.0703125 -0.53515625 C82.9553244 -0.5337413 83.8403363 -0.53232635 84.75216675 -0.53086853 C87.58481191 -0.5252614 90.41737864 -0.51270771 93.25 -0.5 C95.16796761 -0.49498592 97.08593646 -0.49042285 99.00390625 -0.48632812 C103.71096782 -0.47528966 108.4179706 -0.45802025 113.125 -0.4375 C113.125 -0.1075 113.125 0.2225 113.125 0.5625 C100.97895354 2.62023489 89.10613246 2.84213966 76.81274414 2.80541992 C74.70531149 2.80649506 72.59787914 2.80843718 70.490448 2.81117249 C64.81119846 2.81598486 59.13202851 2.80841192 53.45278859 2.79821944 C47.49216263 2.78938493 41.53153877 2.79119739 35.57090759 2.7915802 C25.57224203 2.79064635 15.57360699 2.78199764 5.57495117 2.76831055 C-5.97511146 2.75255793 -17.52514078 2.74731365 -29.07521337 2.7480461 C-41.39797165 2.74872192 -53.72071715 2.74178236 -66.04347157 2.7325995 C-69.5858199 2.73047117 -73.12816615 2.72975875 -76.67051506 2.72936058 C-82.23643203 2.72835467 -87.80232114 2.72223774 -93.36822891 2.71219444 C-95.40798967 2.70927931 -97.44775364 2.70804207 -99.4875164 2.70862198 C-102.27559677 2.70911461 -105.06359976 2.70343814 -107.85166931 2.69621277 C-108.65468867 2.69776137 -109.45770802 2.69930997 -110.2850613 2.7009055 C-115.23058362 2.67980121 -119.97799427 2.26318366 -124.875 1.5625 C-124.875 1.2325 -124.875 0.9025 -124.875 0.5625 C-123.89512619 0.56472061 -122.91525238 0.56694122 -121.90568542 0.56922913 C-112.53991462 0.5897568 -103.17414854 0.6046117 -93.8083601 0.61431217 C-88.99666066 0.61946734 -84.18497978 0.62642575 -79.37329102 0.63793945 C-60.67931714 0.68157244 -42.02134053 0.70918597 -23.34181213 -0.11227417 C-15.51954011 -0.44913505 -7.82359909 -0.38363441 0 0 Z " fill="#1C2543" transform="translate(204.875,387.4375)"/>
<path d="M0 0 C2.8100346 1.79363911 4.50940468 3.01880935 6 6 C6.55512815 10.63213493 6.6364242 13.98172127 4.125 18 C0.88713671 21.04740074 -1.48345889 21.43015034 -5.95703125 21.32421875 C-8 21 -8 21 -11 19.1875 C-13.93023007 14.51744583 -13.98176491 10.36751797 -13 5 C-9.73232243 -0.20786113 -5.80755856 -1.30230101 0 0 Z " fill="#F2F4F6" transform="translate(182,309)"/>
<path d="M0 0 C3.32368224 1.10789408 3.61563093 1.48436217 5.25 4.375 C5.78367188 5.28378906 5.78367188 5.28378906 6.328125 6.2109375 C7 8 7 8 6 11 C6.83213925 11 7.66427851 11 8.5216341 11 C62.6810894 11 116.8405447 11 171 11 C166.2952543 15.7047457 155.50105185 14.0544443 149.14485168 14.11352539 C146.66923467 14.11337897 144.19361375 14.10781553 141.71801758 14.09765625 C140.33958491 14.09573084 138.96115152 14.09427 137.5827179 14.0932312 C134.63912939 14.0900974 131.69557042 14.08386976 128.75199318 14.07516479 C124.06852581 14.06146718 119.38506772 14.05571048 114.70158386 14.05102539 C103.89887361 14.03904969 93.0961882 14.01711076 82.29349518 13.99479675 C72.41511 13.97446351 62.53673399 13.95641272 52.65833205 13.94658184 C48.77882228 13.94247927 44.89934148 13.93630968 41.01984596 13.92483521 C26.43155791 13.88218221 11.85730952 13.89908871 -2.72387695 14.44140625 C-4.31538086 14.49988991 -4.31538086 14.49988991 -5.93903637 14.55955505 C-10.70179715 14.76211652 -15.31423387 15.0505172 -20 16 C-19 14 -19 14 -15.875 12.875 C-9.40189529 11.3574956 -2.60617817 11.8451677 4 12 C3.62746094 11.38511719 3.25492188 10.77023437 2.87109375 10.13671875 C2.39800781 9.32847656 1.92492187 8.52023437 1.4375 7.6875 C0.96183594 6.88699219 0.48617187 6.08648437 -0.00390625 5.26171875 C-1 3 -1 3 0 0 Z " fill="#1A3460" transform="translate(180,256)"/>
<path d="M0 0 C0.99 0 1.98 0 3 0 C2.979375 0.969375 2.95875 1.93875 2.9375 2.9375 C2.64381501 5.87465895 2.64381501 5.87465895 4 7 C5.99958364 7.04080783 8.00045254 7.04254356 10 7 C10.28875 6.195625 10.5775 5.39125 10.875 4.5625 C12 2 12 2 14 1 C16.91699274 0.91301772 19.80982548 0.88448077 22.7265625 0.90234375 C24.02078629 0.90446617 24.02078629 0.90446617 25.34115601 0.90663147 C28.1024723 0.91223812 30.86370812 0.92479173 33.625 0.9375 C35.4947905 0.94251414 37.36458226 0.9470772 39.234375 0.95117188 C43.82294777 0.96220971 48.41146023 0.9794788 53 1 C53.625 2.875 53.625 2.875 54 5 C50.99624524 8.00375476 47.62515137 7.29797226 43.59765625 7.30859375 C41.88606427 7.3337513 40.1744758 7.35914936 38.46289062 7.38476562 C35.75920501 7.41353609 33.05558051 7.43754799 30.35180664 7.45629883 C27.74593423 7.47791743 25.14078102 7.51735193 22.53515625 7.55859375 C21.7257106 7.55870956 20.91626495 7.55882538 20.08229065 7.5589447 C15.90166946 7.43573492 15.90166946 7.43573492 12.5087738 9.49378967 C11 11 11 11 7.0625 11.5 C3.7251456 11.37093105 3.15031458 11.13152526 0.5 8.8125 C-1.08212417 5.84601717 -1.45830468 4.29979372 -1 1 C-0.67 0.67 -0.34 0.34 0 0 Z " fill="#22314D" transform="translate(136,188)"/>
<path d="M0 0 C3.14863381 0.71312628 4.18817722 1.81537552 6.03515625 4.4609375 C6.51478994 7.39538637 6.41292075 10.24778383 6.28515625 13.2109375 C6.26710938 14.00371094 6.2490625 14.79648437 6.23046875 15.61328125 C6.18348707 17.56302098 6.11174669 19.51213628 6.03515625 21.4609375 C4.38515625 21.4609375 2.73515625 21.4609375 1.03515625 21.4609375 C1.03515625 20.8009375 1.03515625 20.1409375 1.03515625 19.4609375 C0.04515625 20.1209375 -0.94484375 20.7809375 -1.96484375 21.4609375 C-5.60292555 21.92537347 -7.32218729 21.88937514 -10.40234375 19.8359375 C-11.96484375 17.4609375 -11.96484375 17.4609375 -11.90234375 14.3359375 C-10.96484375 11.4609375 -10.96484375 11.4609375 -7.96484375 9.4609375 C-5.703125 9.265625 -5.703125 9.265625 -3.27734375 9.3359375 C-2.06498047 9.36300781 -2.06498047 9.36300781 -0.828125 9.390625 C0.09419922 9.42542969 0.09419922 9.42542969 1.03515625 9.4609375 C0.70515625 8.1409375 0.37515625 6.8209375 0.03515625 5.4609375 C-1.6309628 5.4182165 -3.2986726 5.42029918 -4.96484375 5.4609375 C-5.29484375 5.7909375 -5.62484375 6.1209375 -5.96484375 6.4609375 C-7.6310149 6.50157582 -9.2987247 6.5036585 -10.96484375 6.4609375 C-8.60496007 1.01505208 -5.80826449 0.24620774 0 0 Z " fill="#EFF1F3" transform="translate(303.96484375,308.5390625)"/>
<path d="M0 0 C0.33 0 0.66 0 1 0 C1.14017091 16.99383694 1.24597098 33.98749345 1.31087303 50.98177624 C1.34180945 58.8725689 1.38398517 66.76300236 1.45263672 74.65356445 C1.51244615 81.53112554 1.55115073 88.40842648 1.56453097 95.2862404 C1.57235243 98.92804913 1.59072791 102.56911367 1.63438034 106.21068382 C1.68272227 110.27645223 1.68393894 114.34092758 1.68115234 118.40698242 C1.702724 119.61395279 1.72429565 120.82092316 1.746521 122.06446838 C1.73827301 123.17359589 1.73002502 124.28272339 1.7215271 125.42546082 C1.72705786 126.3868909 1.73258862 127.34832098 1.73828697 128.33888531 C1 131 1 131 -5 136 C-5 98.71 -5 61.42 -5 23 C-4.67 23 -4.34 23 -4 23 C-3.2208568 58.67148048 -2.85484207 94.32017963 -3 130 C-2.34 130 -1.68 130 -1 130 C-0.67 87.1 -0.34 44.2 0 0 Z " fill="#1A5566" transform="translate(318,70)"/>
<path d="M0 0 C1.65 0 3.3 0 5 0 C5.33 4.62 5.66 9.24 6 14 C7.299375 12.2675 7.299375 12.2675 8.625 10.5 C11.53141476 7.06074253 11.53141476 7.06074253 15.375 6.5625 C16.674375 6.7790625 16.674375 6.7790625 18 7 C17.04956626 8.33897583 16.08940853 9.67105427 15.125 11 C14.59132813 11.7425 14.05765625 12.485 13.5078125 13.25 C13.01023437 13.8275 12.51265625 14.405 12 15 C11.34 15 10.68 15 10 15 C10.5775 15.77085937 11.155 16.54171875 11.75 17.3359375 C12.4925 18.33882813 13.235 19.34171875 14 20.375 C15.11375 21.87160156 15.11375 21.87160156 16.25 23.3984375 C18 26 18 26 18 28 C15.3125 28.4375 15.3125 28.4375 12 28 C10.41460283 26.32437697 9.27242786 24.59950596 8.078125 22.62890625 C7.08550102 20.83482322 7.08550102 20.83482322 5 20 C5 22.64 5 25.28 5 28 C3.35 28 1.7 28 0 28 C0 18.76 0 9.52 0 0 Z " fill="#EFF1F3" transform="translate(337,302)"/>
<path d="M0 0 C2.5 1.3125 2.5 1.3125 4 3 C4 3.99 4 4.98 4 6 C2.35 6 0.7 6 -1 6 C-1 5.34 -1 4.68 -1 4 C-2.65 4.33 -4.3 4.66 -6 5 C-6 5.66 -6 6.32 -6 7 C-5.37351563 7.19335938 -4.74703125 7.38671875 -4.1015625 7.5859375 C-2.87566406 7.97652344 -2.87566406 7.97652344 -1.625 8.375 C-0.81289062 8.63023437 -0.00078125 8.88546875 0.8359375 9.1484375 C3 10 3 10 5 12 C5.4375 14.375 5.4375 14.375 5 17 C2.90000681 19.42811712 1.23674251 20.73070929 -1.9375 21.421875 C-6.11151948 21.70646724 -7.61582046 21.30414214 -11 18.625 C-13 16 -13 16 -13 14 C-11.35 14 -9.7 14 -8 14 C-7.67 14.66 -7.34 15.32 -7 16 C-5.02 16 -3.04 16 -1 16 C-1 15.34 -1 14.68 -1 14 C-1.62648437 13.80664062 -2.25296875 13.61328125 -2.8984375 13.4140625 C-3.71570313 13.15367187 -4.53296875 12.89328125 -5.375 12.625 C-6.59316406 12.24214844 -6.59316406 12.24214844 -7.8359375 11.8515625 C-10 11 -10 11 -12 9 C-11.8125 5.5 -11.8125 5.5 -11 2 C-7.30628421 -0.46247719 -4.28710603 -0.56931388 0 0 Z " fill="#EBEEF0" transform="translate(249,309)"/>
<path d="M0 0 C5.94 0 11.88 0 18 0 C18 1.32 18 2.64 18 4 C13.71 4 9.42 4 5 4 C5 6.31 5 8.62 5 11 C8.96 11 12.92 11 17 11 C17 12.32 17 13.64 17 15 C12.71 15 8.42 15 4 15 C4 18.63 4 22.26 4 26 C2.68 26 1.36 26 0 26 C0 17.42 0 8.84 0 0 Z " fill="#F3F4F5" transform="translate(148,303)"/>
<path d="M0 0 C3 2.3125 3 2.3125 5 5 C5 5.99 5 6.98 5 8 C2.625 8.1875 2.625 8.1875 0 8 C-0.66 7.01 -1.32 6.02 -2 5 C-3.65 5.33 -5.3 5.66 -7 6 C-7 8.97 -7 11.94 -7 15 C-3.52852158 15.74957157 -3.52852158 15.74957157 0 16 C0 15.01 0 14.02 0 13 C1.65 13 3.3 13 5 13 C4.68762196 15.88949684 4.35661121 17.58633099 2.4375 19.8125 C-1.03753605 21.50546628 -4.26224286 21.81578033 -8 21 C-10.69105198 18.82425584 -12.45532928 17.08934144 -14 14 C-14.37712577 9.00308353 -14.09290612 6.00932275 -11 2 C-7.32610037 -0.44926642 -4.26791164 -0.830333 0 0 Z " fill="#EBEDF0" transform="translate(205,309)"/>
<path d="M0 0 C3.375 2 3.375 2 6 4 C5.34 4.33 4.68 4.66 4 5 C2.32459336 4.35561283 0.65816784 3.68753301 -1 3 C-8.20234867 3 -15.897514 10.26401682 -21.08984375 14.9765625 C-24.12058203 18.18703782 -26.62826407 21.7283643 -29.140625 25.3515625 C-31 28 -31 28 -33.203125 30.66796875 C-35.18833112 32.87850779 -35.18833112 32.87850779 -35.5 35.6875 C-35.665 36.450625 -35.83 37.21375 -36 38 C-36.57363281 38.27714844 -37.14726562 38.55429688 -37.73828125 38.83984375 C-40.7111607 40.36479228 -42.46084082 42.39439126 -44.6875 44.875 C-45.47511719 45.73867187 -46.26273438 46.60234375 -47.07421875 47.4921875 C-48.89264612 49.86020042 -49.45014403 51.15481506 -50 54 C-51.6875 54.9375 -51.6875 54.9375 -54 56 C-55.485 57.2684375 -55.485 57.2684375 -57 58.5625 C-59.59115237 60.6678113 -60.785083 61.62904804 -64 62 C-61.41110463 59.38730964 -58.8071222 56.818915 -56.125 54.30078125 C-46.14943599 44.84050705 -38.55990264 34.07907977 -30.79296875 22.79296875 C-13.17319231 -2.29098997 -13.17319231 -2.29098997 0 0 Z " fill="#45A6CB" transform="translate(268,199)"/>
<path d="M0 0 C1.65 0 3.3 0 5 0 C5.33 4.95 5.66 9.9 6 15 C7.65 15.33 9.3 15.66 11 16 C13.77042109 13.22957891 13.39796106 11.23466195 13.625 7.375 C13.69976562 6.18648438 13.77453125 4.99796875 13.8515625 3.7734375 C13.90054688 2.85820312 13.94953125 1.94296875 14 1 C15.32 1 16.64 1 18 1 C18 7.27 18 13.54 18 20 C16.35 19.67 14.7 19.34 13 19 C12.01 19.66 11.02 20.32 10 21 C6.5498608 21.4404433 4.73515044 21.49889922 1.82421875 19.5234375 C-0.8423153 15.83482723 -0.44087211 12.67676461 -0.25 8.25 C-0.23195312 7.45722656 -0.21390625 6.66445313 -0.1953125 5.84765625 C-0.14833082 3.89791652 -0.07659044 1.94880122 0 0 Z " fill="#F7F8FA" transform="translate(214,309)"/>
<path d="M0 0 C2.5 1.8125 2.5 1.8125 4 4 C4 4.99 4 5.98 4 7 C2.35 7 0.7 7 -1 7 C-1 6.34 -1 5.68 -1 5 C-3.41645782 4.83312552 -3.41645782 4.83312552 -6 5 C-8.38785276 6.94234089 -8.38785276 6.94234089 -8.1875 10.5 C-8.24131237 13.84964703 -8.24131237 13.84964703 -7 16 C-4.58380177 16.25030977 -4.58380177 16.25030977 -2 16 C-1.34 15.01 -0.68 14.02 0 13 C2.625 12.8125 2.625 12.8125 5 13 C3.55214724 18.55010225 3.55214724 18.55010225 1.3125 20.375 C-1.98175634 21.26533955 -4.59950897 21.35794642 -8 21 C-10.75329021 19.20437595 -12.52627461 17.94745078 -14 15 C-14.55512815 10.36786507 -14.6364242 7.01827873 -12.125 3 C-8.46935498 -0.44060708 -4.87595374 -0.71308414 0 0 Z " fill="#F1F3F5" transform="translate(328,309)"/>
<path d="M0 0 C7.26 0 14.52 0 22 0 C22 1.32 22 2.64 22 4 C19.36 4 16.72 4 14 4 C14 11.59 14 19.18 14 27 C12.35 27 10.7 27 9 27 C9 19.41 9 11.82 9 4 C6.03 4 3.06 4 0 4 C0 2.68 0 1.36 0 0 Z " fill="#F5F7F7" transform="translate(255,303)"/>
<path d="M0 0 C0.66 0.33 1.32 0.66 2 1 C1.01 2.32 0.02 3.64 -1 5 C47.84 5 96.68 5 147 5 C146.67 5.66 146.34 6.32 146 7 C94.85 7 43.7 7 -9 7 C-6.16032769 4.16032769 -3.35997108 2.1653147 0 0 Z " fill="#5280D1" transform="translate(202,261)"/>
<path d="M0 0 C0 6.84205702 -2.06737733 10.68136847 -6.74780273 15.44311523 C-7.38790283 16.06001221 -8.02800293 16.67690918 -8.6875 17.3125 C-9.35015869 17.95968994 -10.01281738 18.60687988 -10.69555664 19.27368164 C-15.18216445 23.54016575 -19.84338939 27.41810999 -24.9375 30.9375 C-25.52684326 31.35620361 -26.11618652 31.77490723 -26.72338867 32.20629883 C-31.37866013 35.23650006 -34.6452466 35.38206254 -40 35 C-37.61223319 32.31277729 -35.13555845 30.91843151 -31.9375 29.3125 C-18.92209694 22.35037399 -8.67824429 11.80352841 0 0 Z " fill="#6CC0E7" transform="translate(225,233)"/>
<path d="M0 0 C0.495 0.99 0.495 0.99 1 2 C0.34 2.99 -0.32 3.98 -1 5 C-3.71434263 5.30112656 -6.21275721 5.41698588 -8.9296875 5.40625 C-9.71642853 5.41708618 -10.50316956 5.42792236 -11.31375122 5.43908691 C-13.83425069 5.47343167 -16.35429702 5.48895482 -18.875 5.5 C-22.18533228 5.51456622 -25.49465168 5.54826982 -28.8046875 5.59375 C-29.5652243 5.59072876 -30.32576111 5.58770752 -31.10934448 5.58459473 C-35.38706849 5.64517324 -37.88348434 5.99440077 -41 9 C-42.98828125 10.28125 -42.98828125 10.28125 -45 11 C-48.0551 10.31982931 -50.55668189 8.9457087 -53 7 C-54 3.75 -54 3.75 -54 1 C-53.505 1.66 -53.01 2.32 -52.5 3 C-49.84941377 5.12046898 -49.17371169 5.33618214 -45.9375 5.4375 C-41.61613524 4.95734836 -41.74396015 4.75585699 -39 2 C-36.07701524 1.68071379 -33.35585095 1.53515129 -30.4296875 1.5234375 C-29.59285431 1.50785797 -28.75602112 1.49227844 -27.89382935 1.47622681 C-25.22089555 1.42868346 -22.54822353 1.40093032 -19.875 1.375 C-17.19481883 1.33855452 -14.51478755 1.29799165 -11.83474731 1.25234985 C-10.16660309 1.22504545 -8.4983486 1.20372819 -6.83004761 1.18881226 C-3.11060673 1.49335968 -3.11060673 1.49335968 0 0 Z " fill="#C7CDD9" transform="translate(189,193)"/>
<path d="M0 0 C0.33 0.99 0.66 1.98 1 3 C-1.31 2.67 -3.62 2.34 -6 2 C-7.485 4.475 -7.485 4.475 -9 7 C-8.01 6.34 -7.02 5.68 -6 5 C-2.875 5.25 -2.875 5.25 0 6 C1.38125018 8.76250036 1.19079306 10.94731099 1 14 C-1 16 -1 16 -4.4375 16.375 C-8 16 -8 16 -9.9375 14.5625 C-11.54299182 10.6904315 -11.66486486 7.12518422 -11 3 C-8.07873274 -1.907729 -5.19187334 -1.19812462 0 0 Z " fill="#0E101D" transform="translate(148,260)"/>
<path d="M0 0 C2.9375 0.8125 2.9375 0.8125 4.9375 3.8125 C5.23828125 6.1875 5.23828125 6.1875 5.25 8.8125 C5.26675781 9.67875 5.28351563 10.545 5.30078125 11.4375 C4.9375 13.8125 4.9375 13.8125 3.6484375 15.61328125 C0.89924101 17.54022947 -1.8178945 16.99615692 -5.0625 16.8125 C-5.7225 15.4925 -6.3825 14.1725 -7.0625 12.8125 C-4.4225 13.1425 -1.7825 13.4725 0.9375 13.8125 C0.9375 12.8225 0.9375 11.8325 0.9375 10.8125 C-0.485625 10.9053125 -0.485625 10.9053125 -1.9375 11 C-2.96875 10.938125 -4 10.87625 -5.0625 10.8125 C-7.0625 7.8125 -7.0625 7.8125 -6.875 4.75 C-5.72557438 0.5943843 -4.26983801 -0.26141865 0 0 Z " fill="#0F1220" transform="translate(67.0625,182.1875)"/>
<path d="M0 0 C3.66666667 0 7.33333333 0 11 0 C11 1.65 11 3.3 11 5 C9.35 5.33 7.7 5.66 6 6 C5.67 10.95 5.34 15.9 5 21 C3.35 21 1.7 21 0 21 C0 14.07 0 7.14 0 0 Z " fill="#E9EBEE" transform="translate(279,309)"/>
<path d="M0 0 C3.32368224 1.10789408 3.61563093 1.48436217 5.25 4.375 C5.78367188 5.28378906 5.78367188 5.28378906 6.328125 6.2109375 C7 8 7 8 6 11 C7.27617187 11.04898437 8.55234375 11.09796875 9.8671875 11.1484375 C11.53648072 11.22346191 13.20575046 11.29900988 14.875 11.375 C16.13763672 11.42140625 16.13763672 11.42140625 17.42578125 11.46875 C18.63427734 11.52675781 18.63427734 11.52675781 19.8671875 11.5859375 C20.61081543 11.6173584 21.35444336 11.6487793 22.12060547 11.68115234 C24 12 24 12 26 14 C25.29101562 13.98839844 24.58203125 13.97679687 23.8515625 13.96484375 C15.39091723 13.89314337 6.95443509 14.1275315 -1.5 14.4375 C-2.63356934 14.47673584 -3.76713867 14.51597168 -4.93505859 14.55639648 C-6.56048584 14.61935913 -6.56048584 14.61935913 -8.21875 14.68359375 C-9.18748047 14.72025146 -10.15621094 14.75690918 -11.15429688 14.79467773 C-14.14994723 15.01081894 -17.04649979 15.46247827 -20 16 C-19 14 -19 14 -15.875 12.875 C-9.40189529 11.3574956 -2.60617817 11.8451677 4 12 C3.62746094 11.38511719 3.25492188 10.77023437 2.87109375 10.13671875 C2.39800781 9.32847656 1.92492187 8.52023437 1.4375 7.6875 C0.96183594 6.88699219 0.48617187 6.08648437 -0.00390625 5.26171875 C-1 3 -1 3 0 0 Z " fill="#263959" transform="translate(180,256)"/>
<path d="M0 0 C6.46416845 1.26130116 9.0577523 5.15666711 13 10 C14.1249276 11.18756858 15.24992793 12.37506828 16.375 13.5625 C23.75345407 22.10160976 28.94867823 31.79588245 32.5625 42.4375 C32.93967163 43.53650635 32.93967163 43.53650635 33.32446289 44.65771484 C34.88386752 49.5942419 35.22738167 53.82852469 35 59 C34.67 59 34.34 59 34 59 C33.70609375 57.45505859 33.70609375 57.45505859 33.40625 55.87890625 C29.10419449 34.81306626 19.61704574 18.81081203 4 4 C2.66320797 2.67013436 1.32884655 1.33780507 0 0 Z " fill="#519197" transform="translate(354,19)"/>
<path d="M0 0 C0 15.51 0 31.02 0 47 C-0.33 47 -0.66 47 -1 47 C-1 32.15 -1 17.3 -1 2 C-7.69370771 6.15635281 -7.69370771 6.15635281 -10 10 C-12.125 10.6875 -12.125 10.6875 -14 11 C-13.49897679 6.65779887 -10.85962472 4.13196993 -8 1 C-5 -1 -5 -1 0 0 Z " fill="#62DDD0" transform="translate(352,157)"/>
<path d="M0 0 C1 1 1 1 1.0625 3.4375 C1.041875 4.283125 1.02125 5.12875 1 6 C1 6.66 1 7.32 1 8 C1.33 8.33 1.66 8.66 2 9 C2.1875 11.4375 2.1875 11.4375 2 14 C0 16 0 16 -1.875 16.23046875 C-2.57625 16.21628906 -3.2775 16.20210937 -4 16.1875 C-4.70125 16.18105469 -5.4025 16.17460937 -6.125 16.16796875 C-8 16 -8 16 -10 15 C-10 14.01 -10 13.02 -10 12 C-7.36 12.33 -4.72 12.66 -2 13 C-2 12.01 -2 11.02 -2 10 C-3.65 9.67 -5.3 9.34 -7 9 C-7 8.01 -7 7.02 -7 6 C-5.35 6 -3.7 6 -2 6 C-2.33 4.68 -2.66 3.36 -3 2 C-3.99 2 -4.98 2 -6 2 C-6.33 2.66 -6.66 3.32 -7 4 C-7.99 4 -8.98 4 -10 4 C-9.625 2.0625 -9.625 2.0625 -9 0 C-5.90842747 -1.54578627 -3.31526981 -0.60277633 0 0 Z " fill="#0C111E" transform="translate(223,183)"/>
<path d="M0 0 C2.9375 0.375 2.9375 0.375 6 1 C7.50934217 4.01868434 7.17510672 6.67297229 7 10 C6.01 11.485 6.01 11.485 5 13 C2.5 13.3125 2.5 13.3125 0 13 C-2.60704898 10.39295102 -2.23905333 8.52661759 -2.265625 4.97265625 C-2 3 -2 3 0 0 Z " fill="#1D2948" transform="translate(176,313)"/>
<path d="M0 0 C2 2 2 2 2 4.1875 C0.55492038 8.25178644 -2.11079849 10.86016896 -5 14 C-7.38985864 16.73602201 -9.65803815 19.41581517 -11.5 22.5625 C-13.30743074 25.49957495 -15.53561522 27.59572217 -18 30 C-18.721875 30.928125 -19.44375 31.85625 -20.1875 32.8125 C-20.785625 33.534375 -21.38375 34.25625 -22 35 C-22.66 35 -23.32 35 -24 35 C-22.51391132 31.75386137 -20.65835615 29.08556838 -18.48046875 26.26171875 C-17.78759766 25.35873047 -17.09472656 24.45574219 -16.38085938 23.52539062 C-15.29514648 22.12063477 -15.29514648 22.12063477 -14.1875 20.6875 C-5.93390132 11.00257879 -5.93390132 11.00257879 0 0 Z " fill="#BFC6D5" transform="translate(176,152)"/>
<path d="M0 0 C2.625 0.25 2.625 0.25 4.5 1.375 C5.625 3.25 5.625 3.25 5.625 6.125 C4.40970521 9.92279621 2.59795465 11.65819338 -0.375 14.25 C1.935 14.58 4.245 14.91 6.625 15.25 C6.625 16.24 6.625 17.23 6.625 18.25 C2.665 18.25 -1.295 18.25 -5.375 18.25 C-4.24986648 13.74946592 -2.73330492 12.18853861 0.34765625 8.93359375 C1.92721347 7.20388867 1.92721347 7.20388867 1.625 4.25 C0.305 3.92 -1.015 3.59 -2.375 3.25 C-2.375 3.91 -2.375 4.57 -2.375 5.25 C-3.365 5.25 -4.355 5.25 -5.375 5.25 C-2.9868068 0.31440072 -2.9868068 0.31440072 0 0 Z " fill="#182532" transform="translate(147.375,105.75)"/>
<path d="M0 0 C0.84498047 0.34804688 0.84498047 0.34804688 1.70703125 0.703125 C0.81564453 1.48623047 0.81564453 1.48623047 -0.09375 2.28515625 C-6.74892953 8.19512128 -13.04744889 14.36407822 -19.29296875 20.703125 C-20.29189406 21.70419854 -21.29131723 22.70477926 -22.29296875 23.703125 C-21.16209728 14.04722241 -11.65587322 6.77777149 -4.5546875 0.96875 C-2.29296875 -0.296875 -2.29296875 -0.296875 0 0 Z " fill="#417A81" transform="translate(39.29296875,17.296875)"/>
<path d="M0 0 C0.804375 -0.00128906 1.60875 -0.00257812 2.4375 -0.00390625 C3.283125 -0.00003906 4.12875 0.00382812 5 0.0078125 C6.2684375 0.00201172 6.2684375 0.00201172 7.5625 -0.00390625 C8.366875 -0.00261719 9.17125 -0.00132813 10 0 C10.7425 0.00112793 11.485 0.00225586 12.25 0.00341797 C14 0.1328125 14 0.1328125 15 1.1328125 C15.08767112 3.20543326 15.10695873 5.28101544 15.09765625 7.35546875 C15.09443359 8.61552734 15.09121094 9.87558594 15.08789062 11.17382812 C15.07953403 12.51432359 15.07106907 13.85481838 15.0625 15.1953125 C15.0574866 16.53971192 15.05292342 17.8841131 15.04882812 19.22851562 C15.03699488 22.52999191 15.02050971 25.83138053 15 29.1328125 C14.67 29.1328125 14.34 29.1328125 14 29.1328125 C13.67 20.2228125 13.34 11.3128125 13 2.1328125 C10.545625 2.1121875 8.09125 2.0915625 5.5625 2.0703125 C4.4014978 2.05665649 4.4014978 2.05665649 3.21704102 2.04272461 C1.47778283 2.03556337 -0.26145304 2.08256548 -2 2.1328125 C-3.9230889 4.0559014 -3.25321838 7.60351735 -3.31640625 10.23046875 C-3.33718735 10.93932724 -3.35796844 11.64818573 -3.37937927 12.37852478 C-3.44494598 14.65068555 -3.5037923 16.92296514 -3.5625 19.1953125 C-3.60567849 20.73243433 -3.64929255 22.269544 -3.69335938 23.80664062 C-3.80063449 27.5819084 -3.90188137 31.3572961 -4 35.1328125 C-4.33 35.1328125 -4.66 35.1328125 -5 35.1328125 C-5.0246519 30.30900448 -5.04283693 25.48523283 -5.05493164 20.66137695 C-5.05997174 19.01911786 -5.06680378 17.37686327 -5.07543945 15.73461914 C-5.08751926 13.37905771 -5.09323139 11.02355541 -5.09765625 8.66796875 C-5.10281754 7.92942154 -5.10797882 7.19087433 -5.11329651 6.4299469 C-5.1134925 4.66383162 -5.06194719 2.89784104 -5 1.1328125 C-3.4779041 -0.3892834 -2.11789918 0.00321729 0 0 Z " fill="#65C3D7" transform="translate(272,113.8671875)"/>
<path d="M0 0 C0.33 0 0.66 0 1 0 C1.75306785 8.09547936 2.0822107 16.06828646 1.9375 24.19921875 C1.79950444 26.95496548 1.79950444 26.95496548 3 29 C2.67284638 30.6678907 2.33790947 32.3342551 2 34 C1.85261987 36.6477602 1.74527246 39.27630981 1.68359375 41.92578125 C1.66281265 42.67337204 1.64203156 43.42096283 1.62062073 44.19120789 C1.55555811 46.56488396 1.4964429 48.93866487 1.4375 51.3125 C1.39427354 52.92774495 1.35065796 54.54297953 1.30664062 56.15820312 C1.19992149 60.10536299 1.09853381 64.05262767 1 68 C0.67 68 0.34 68 0 68 C0 45.56 0 23.12 0 0 Z " fill="#2B757B" transform="translate(339,61)"/>
<path d="M0 0 C0.33 0 0.66 0 1 0 C1 22.11 1 44.22 1 67 C0.67 67 0.34 67 0 67 C-0.16943255 61.66575632 -0.32976975 56.33133933 -0.48217773 50.99658203 C-0.53509973 49.18693943 -0.5903805 47.37736405 -0.64819336 45.56787109 C-0.96365041 35.64331812 -1.20967791 25.88429205 0 16 C-0.66 16 -1.32 16 -2 16 C-1.34 10.72 -0.68 5.44 0 0 Z " fill="#399087" transform="translate(188,24)"/>
<path d="M0 0 C0 5.1253726 -1.05560911 9.32334636 -4.6015625 13.08984375 C-5.59674794 14.05229282 -6.60487683 15.00152405 -7.625 15.9375 C-8.140625 16.43056641 -8.65625 16.92363281 -9.1875 17.43164062 C-10.44712865 18.63295314 -11.7220398 19.81820737 -13 21 C-14.32 20.34 -15.64 19.68 -17 19 C-16.35933594 18.38253906 -15.71867188 17.76507813 -15.05859375 17.12890625 C-9.54386491 11.72923881 -4.5492997 6.23645721 0 0 Z " fill="#6AC9E2" transform="translate(225,233)"/>
<path d="M0 0 C0.66 0.66 1.32 1.32 2 2 C1.57421875 4.3984375 1.57421875 4.3984375 0.6875 7.375 C-2.65115501 18.58442089 -2.11515683 30.35738385 -2 41.9375 C-1.97325715 44.67577727 -1.95339035 47.41398448 -1.9375 50.15234375 C-1.92589844 51.34851318 -1.91429687 52.54468262 -1.90234375 53.77709961 C-1.98962055 56.65745216 -2.33082174 59.20506109 -3 62 C-3.33 62 -3.66 62 -4 62 C-4.07521336 56.04503006 -4.12909431 50.09034791 -4.16479492 44.13500977 C-4.17970709 42.11705701 -4.20004401 40.09913563 -4.22631836 38.08129883 C-4.38650469 25.44542415 -4.06285269 13.3184513 -1 1 C-0.67 0.67 -0.34 0.34 0 0 Z " fill="#467381" transform="translate(5,64)"/>
<path d="M0 0 C0.33 0 0.66 0 1 0 C1 7.92 1 15.84 1 24 C1.66 24 2.32 24 3 24 C3.12979248 23.41734375 3.25958496 22.8346875 3.39331055 22.234375 C4.38081402 18.59750104 6.13468403 15.36172202 7.8125 12 C8.15603516 11.2884375 8.49957031 10.576875 8.85351562 9.84375 C10.79758549 5.93372581 12.63854243 2.9006735 16 0 C14.70055648 4.22730359 13.08605205 7.96072862 10.9609375 11.8359375 C10.38085938 12.89941406 9.80078125 13.96289062 9.203125 15.05859375 C8.59984375 16.15300781 7.9965625 17.24742187 7.375 18.375 C6.76398438 19.49261719 6.15296875 20.61023438 5.5234375 21.76171875 C4.01997535 24.51023549 2.51204599 27.25619902 1 30 C0.67 30 0.34 30 0 30 C0 20.1 0 10.2 0 0 Z " fill="#4E96CA" transform="translate(319,170)"/>
<path d="M0 0 C0.66 0.66 1.32 1.32 2 2 C1.44444444 6.55555556 1.44444444 6.55555556 0 8 C-2.9375 8.1875 -2.9375 8.1875 -6 8 C-6.66 7.34 -7.32 6.68 -8 6 C-7.75 2.9375 -7.75 2.9375 -7 0 C-4.29393021 -1.35303489 -2.8671629 -0.7884698 0 0 Z " fill="#5F99C9" transform="translate(146,188)"/>
<path d="M0 0 C0 0.33 0 0.66 0 1 C-0.56283691 1.12004395 -1.12567383 1.24008789 -1.70556641 1.36376953 C-13.43514465 3.90473991 -24.12378555 6.84890399 -35 12 C-36.66147954 12.67949095 -38.32642373 13.35087391 -40 14 C-40 13.34 -40 12.68 -40 12 C-27.0882411 5.20031632 -14.92794154 -0.30465187 0 0 Z " fill="#54989A" transform="translate(82,2)"/>
<path d="M0 0 C0 0.99 0 1.98 0 3 C-1.50390625 4.17578125 -1.50390625 4.17578125 -3.5625 5.3125 C-7.80155212 7.79094759 -11.37499606 10.70351205 -15 14 C-15.66 12.68 -16.32 11.36 -17 10 C-6.45205479 0 -6.45205479 0 0 0 Z " fill="#5DE8D9" transform="translate(260,198)"/>
<path d="M0 0 C2.02581476 4.05162952 2.56118771 6.86017279 3.125 11.3125 C3.29257813 12.58738281 3.46015625 13.86226562 3.6328125 15.17578125 C3.98289383 18.8218411 4.13915069 22.34033682 4 26 C3.67 26.33 3.34 26.66 3 27 C3.3551165 28.9692824 3.71468517 30.93849736 4.13671875 32.89453125 C4 35 4 35 0 39 C0 26.13 0 13.26 0 0 Z " fill="#203651" transform="translate(242,171)"/>
<path d="M0 0 C0 5.61 0 11.22 0 17 C-0.99 17 -1.98 17 -3 17 C-3.33 12.71 -3.66 8.42 -4 4 C-4.99 4.33 -5.98 4.66 -7 5 C-7 4.01 -7 3.02 -7 2 C-4 0 -4 0 0 0 Z " fill="#1D2D3B" transform="translate(137,107)"/>
<path d="M0 0 C0.33 0.66 0.66 1.32 1 2 C0.27683594 2.77923828 0.27683594 2.77923828 -0.4609375 3.57421875 C-3.83695209 7.30161445 -6.19446357 10.27782781 -8 15 C-9.75 16 -9.75 16 -12 17 C-12.99 17.845625 -13.98 18.69125 -15 19.5625 C-17.59115237 21.6678113 -18.785083 22.62904804 -22 23 C-19.27781663 20.27272844 -16.54934073 17.5523692 -13.80859375 14.84375 C-12.68486393 13.72919883 -11.56116645 12.61461505 -10.4375 11.5 C-9.87353516 10.94441406 -9.30957031 10.38882813 -8.72851562 9.81640625 C-5.58774819 6.69400588 -2.69298228 3.5291895 0 0 Z " fill="#3E82C9" transform="translate(226,238)"/>
<path d="M0 0 C0.66 0.33 1.32 0.66 2 1 C1.01 2.32 0.02 3.64 -1 5 C12.86 5.495 12.86 5.495 27 6 C27 6.33 27 6.66 27 7 C15.12 7 3.24 7 -9 7 C-6.16032769 4.16032769 -3.35997108 2.1653147 0 0 Z " fill="#5276D2" transform="translate(202,261)"/>
<path d="M0 0 C0.33 0.99 0.66 1.98 1 3 C-0.8255194 6.11014417 -2.84713347 8.82092778 -5.1875 11.5625 C-7.18944872 13.86449113 -7.18944872 13.86449113 -7.4375 16.6875 C-7.623125 17.450625 -7.80875 18.21375 -8 19 C-10.5625 20.3125 -10.5625 20.3125 -13 21 C-12.38481202 17.86975323 -11.35320511 15.75231886 -9.53125 13.14453125 C-9.04269531 12.44005859 -8.55414063 11.73558594 -8.05078125 11.00976562 C-7.28314453 9.92211914 -7.28314453 9.92211914 -6.5 8.8125 C-5.98824219 8.07580078 -5.47648438 7.33910156 -4.94921875 6.58007812 C-1.19179806 1.19179806 -1.19179806 1.19179806 0 0 Z " fill="#4499CB" transform="translate(240,218)"/>
<path d="M0 0 C6.70076079 -0.41056685 11.7064819 0.9211363 17.9375 3.3125 C18.79923828 3.62123047 19.66097656 3.92996094 20.54882812 4.24804688 C25.25957599 6.01132917 25.25957599 6.01132917 27 7 C27.33 7.99 27.66 8.98 28 10 C22.84649383 8.55263231 17.82318074 6.98899729 12.875 4.9375 C8.62999039 3.1844185 4.48074054 1.99572012 0 1 C0 0.67 0 0.34 0 0 Z " fill="#4D8F8F" transform="translate(317,3)"/>
<path d="M0 0 C-1.20523048 3.61569144 -2.07185564 3.94669545 -5.3125 5.75 C-6.48232422 6.42289063 -6.48232422 6.42289063 -7.67578125 7.109375 C-10.30300917 8.11611108 -11.40927388 7.97226335 -14 7 C-14 6.34 -14 5.68 -14 5 C-12.23628182 3.96692229 -10.46374967 2.94887951 -8.6875 1.9375 C-7.70136719 1.36902344 -6.71523437 0.80054688 -5.69921875 0.21484375 C-3 -1 -3 -1 0 0 Z " fill="#1D2B3D" transform="translate(220,146)"/>
<path d="M0 0 C0.33 0.99 0.66 1.98 1 3 C-0.57347176 4.035969 -2.15921546 5.05331732 -3.75 6.0625 C-4.63171875 6.63097656 -5.5134375 7.19945312 -6.421875 7.78515625 C-9 9 -9 9 -11.328125 8.68359375 C-12.15570313 8.34521484 -12.15570313 8.34521484 -13 8 C-13 7.34 -13 6.68 -13 6 C-10.91796875 4.4921875 -10.91796875 4.4921875 -8.1875 2.875 C-7.29417969 2.33617187 -6.40085937 1.79734375 -5.48046875 1.2421875 C-3 0 -3 0 0 0 Z " fill="#171D31" transform="translate(78,228)"/>
<path d="M0 0 C0.99 0.33 1.98 0.66 3 1 C1.02 4.96 -0.96 8.92 -3 13 C-3.99 13 -4.98 13 -6 13 C-5.51675181 7.84535266 -2.81389239 4.18449681 0 0 Z " fill="#12162A" transform="translate(104,256)"/>
<path d="M0 0 C4.92249987 0.46148436 9.27737682 2.80390169 13 6 C13 6.99 13 7.98 13 9 C8.07750013 8.53851564 3.72262318 6.19609831 0 3 C0 2.01 0 1.02 0 0 Z " fill="#13192C" transform="translate(207,228)"/>
<path d="M0 0 C0.99 0.33 1.98 0.66 3 1 C1.31326082 5.49797113 -0.81673892 9.72886302 -3 14 C-3.99 13.67 -4.98 13.34 -6 13 C-5.51675181 7.84535266 -2.81389239 4.18449681 0 0 Z " fill="#182F3C" transform="translate(185,113)"/>
<path d="M0 0 C4.77609498 1.64178265 8.79382904 4.26546702 13 7 C12.67 7.66 12.34 8.32 12 9 C6.84535266 8.51675181 3.18449681 5.81389239 -1 3 C-0.67 2.01 -0.34 1.02 0 0 Z " fill="#121E2E" transform="translate(66,145)"/>
<path d="M0 0 C0.33 0 0.66 0 1 0 C1.33 3.63 1.66 7.26 2 11 C2.66 10.01 3.32 9.02 4 8 C3.71880143 10.62651431 3.42556162 13.25069335 3.125 15.875 C3.04636719 16.62136719 2.96773438 17.36773437 2.88671875 18.13671875 C2.2265625 23.7734375 2.2265625 23.7734375 0 26 C0 17.42 0 8.84 0 0 Z " fill="#111E2D" transform="translate(0,58)"/>
<path d="M0 0 C0.33 0 0.66 0 1 0 C1.14876435 4.46560056 1.25740399 8.92987491 1.32958984 13.3972168 C1.35969086 14.91537611 1.40058346 16.43336251 1.45263672 17.95092773 C1.52576394 20.13829199 1.55951745 22.3233517 1.5859375 24.51171875 C1.6173584 25.82615967 1.6487793 27.14060059 1.68115234 28.49487305 C0.74767899 33.29841317 -1.0444284 34.28767322 -5 37 C-5 35.35 -5 33.7 -5 32 C-3.68 31.67 -2.36 31.34 -1 31 C-0.67 20.77 -0.34 10.54 0 0 Z " fill="#123B5A" transform="translate(318,169)"/>
<path d="M0 0 C3.33161397 2.98696425 5.34826557 5.82719722 7 10 C6.6875 12.375 6.6875 12.375 6 14 C1.68614204 10.45647382 0.0278602 6.04807753 -2 1 C-1.34 0.67 -0.68 0.34 0 0 Z " fill="#192D3E" transform="translate(99,113)"/>
<path d="M0 0 C1.65 0 3.3 0 5 0 C5.33 0.66 5.66 1.32 6 2 C8.52733235 2.65555119 8.52733235 2.65555119 11 3 C11.33 6.3 11.66 9.6 12 13 C11.67 13 11.34 13 11 13 C10.87625 12.0925 10.7525 11.185 10.625 10.25 C8.39059419 5.78118837 5.68324327 5.25506777 1.1171875 3.6640625 C0.41851562 3.44492187 -0.28015625 3.22578125 -1 3 C-0.67 2.01 -0.34 1.02 0 0 Z " fill="#0F1A3E" transform="translate(243,313)"/>
<path d="M0 0 C-1.61537444 3.89917968 -4.27924873 6.71293772 -7.125 9.75 C-7.59292969 10.25660156 -8.06085938 10.76320312 -8.54296875 11.28515625 C-9.69126541 12.52719141 -10.84508672 13.76411494 -12 15 C-12.33 14.34 -12.66 13.68 -13 13 C-11.92486946 11.39032422 -10.83953156 9.78746337 -9.75 8.1875 C-9.14671875 7.29417969 -8.5434375 6.40085938 -7.921875 5.48046875 C-3.67559055 0 -3.67559055 0 0 0 Z " fill="#48C1BC" transform="translate(351,159)"/>
<path d="M0 0 C0 0.66 0 1.32 0 2 C-0.99 2.66 -1.98 3.32 -3 4 C-3 5.32 -3 6.64 -3 8 C-1.35 8 0.3 8 2 8 C1.67 8.99 1.34 9.98 1 11 C-1.875 11.1875 -1.875 11.1875 -5 11 C-7 8 -7 8 -6.8125 4.9375 C-5.67867964 0.8383033 -4.20818841 0 0 0 Z " fill="#0C101C" transform="translate(67,182)"/>
<path d="M0 0 C0.33 0 0.66 0 1 0 C1.14294839 5.07200665 1.2853507 10.14402823 1.42724609 15.21606445 C1.47559831 16.94165461 1.52409998 18.66724059 1.57275391 20.39282227 C1.64264551 22.87254775 1.71200036 25.35228776 1.78125 27.83203125 C1.80312378 28.60400345 1.82499756 29.37597565 1.84753418 30.17134094 C1.92933942 33.11540364 2 36.05463065 2 39 C1.01 39.495 1.01 39.495 0 40 C0 26.8 0 13.6 0 0 Z " fill="#BFC9D9" transform="translate(146,142)"/>
<path d="M0 0 C0.33 0 0.66 0 1 0 C1 8.91 1 17.82 1 27 C0.34 26.67 -0.32 26.34 -1 26 C-0.979375 25.113125 -0.95875 24.22625 -0.9375 23.3125 C-0.89817017 20.07324065 -0.89817017 20.07324065 -1.5625 17.25 C-2 15 -2 15 -1 13 C-0.77049681 10.795636 -0.58924067 8.58607827 -0.4375 6.375 C-0.35371094 5.18648437 -0.26992187 3.99796875 -0.18359375 2.7734375 C-0.12300781 1.85820313 -0.06242188 0.94296875 0 0 Z " fill="#328080" transform="translate(162,55)"/>
<path d="M0 0 C0.80050781 0.22042969 1.60101563 0.44085938 2.42578125 0.66796875 C3.23402344 0.88066406 4.04226562 1.09335937 4.875 1.3125 C5.79732422 1.58126953 5.79732422 1.58126953 6.73828125 1.85546875 C6.73828125 3.17546875 6.73828125 4.49546875 6.73828125 5.85546875 C4.75828125 5.85546875 2.77828125 5.85546875 0.73828125 5.85546875 C0.40828125 4.86546875 0.07828125 3.87546875 -0.26171875 2.85546875 C-1.91171875 2.85546875 -3.56171875 2.85546875 -5.26171875 2.85546875 C-2.89519796 -0.18501265 -2.89519796 -0.18501265 0 0 Z " fill="#15203E" transform="translate(241.26171875,320.14453125)"/>
<path d="M0 0 C3.32368224 1.10789408 3.61563093 1.48436217 5.25 4.375 C5.60578125 4.98085938 5.9615625 5.58671875 6.328125 6.2109375 C7 8 7 8 6 11 C2.67631776 9.89210592 2.38436907 9.51563783 0.75 6.625 C0.39421875 6.01914062 0.0384375 5.41328125 -0.328125 4.7890625 C-1 3 -1 3 0 0 Z " fill="#0E1325" transform="translate(180,256)"/>
<path d="M0 0 C0.99 0 1.98 0 3 0 C3 1.98 3 3.96 3 6 C5.475 6.99 5.475 6.99 8 8 C6.68 8.99 5.36 9.98 4 11 C-0.90322581 6.70967742 -0.90322581 6.70967742 -1.375 3.25 C-1 1 -1 1 0 0 Z " fill="#182846" transform="translate(136,188)"/>
<path d="M0 0 C1.47103502 2.94207004 1 5.7395144 1 9 C1.42854995 11.31036915 1.42854995 11.31036915 2 13 C1.34 12.67 0.68 12.34 0 12 C0 11.34 0 10.68 0 10 C-1.98 10.99 -1.98 10.99 -4 12 C-3.67 8.37 -3.34 4.74 -3 1 C-2.01 0.67 -1.02 0.34 0 0 Z " fill="#0E173C" transform="translate(191,314)"/>
<path d="M0 0 C2.625 0.25 2.625 0.25 4.4375 1.5 C5.625 3.25 5.625 3.25 5.625 7.25 C4.965 7.25 4.305 7.25 3.625 7.25 C3.625 6.26 3.625 5.27 3.625 4.25 C0.655 3.755 0.655 3.755 -2.375 3.25 C-2.375 3.91 -2.375 4.57 -2.375 5.25 C-3.365 5.25 -4.355 5.25 -5.375 5.25 C-2.9868068 0.31440072 -2.9868068 0.31440072 0 0 Z " fill="#203441" transform="translate(147.375,105.75)"/>
<path d="M0 0 C2.125 0.375 2.125 0.375 4 1 C4 2.65 4 4.3 4 6 C2.35 6.33 0.7 6.66 -1 7 C-1.625 4.625 -1.625 4.625 -2 2 C-1.34 1.34 -0.68 0.68 0 0 Z " fill="#D4D5E0" transform="translate(142,267)"/>
<path d="M0 0 C1.98 0 3.96 0 6 0 C6.5625 1.9375 6.5625 1.9375 7 4 C6 5 6 5 3.6875 5.125 C1.28967362 5.01347319 -0.70894512 4.67883108 -3 4 C-3 3.34 -3 2.68 -3 2 C-2.01 2 -1.02 2 0 2 C0 1.34 0 0.68 0 0 Z " fill="#D2D7E2" transform="translate(215,192)"/>
<path d="M0 0 C1.134375 0.020625 2.26875 0.04125 3.4375 0.0625 C2.5625 3.9375 2.5625 3.9375 1.4375 5.0625 C-0.22867115 5.10313832 -1.89638095 5.105221 -3.5625 5.0625 C-4.125 3.125 -4.125 3.125 -4.5625 1.0625 C-3.5625 0.0625 -3.5625 0.0625 0 0 Z " fill="#171F35" transform="translate(301.5625,320.9375)"/>
<path d="M0 0 C0.66 0.66 1.32 1.32 2 2 C1.57421875 4.3984375 1.57421875 4.3984375 0.6875 7.375 C-1.01149288 13.58459345 -1.67017466 19.58546572 -2 26 C-2.33 26 -2.66 26 -3 26 C-3.41001353 8.91610284 -3.41001353 8.91610284 -1 1 C-0.67 0.67 -0.34 0.34 0 0 Z " fill="#4D868F" transform="translate(5,64)"/>
<path d="M0 0 C0.77472656 0.00451172 1.54945312 0.00902344 2.34765625 0.01367188 C4.23180524 0.02530242 6.11591365 0.04323094 8 0.0625 C8 0.3925 8 0.7225 8 1.0625 C3.38 1.0625 -1.24 1.0625 -6 1.0625 C-6 1.7225 -6 2.3825 -6 3.0625 C-10.62 3.0625 -15.24 3.0625 -20 3.0625 C-14.2257705 -0.78698633 -6.74888581 -0.07602731 0 0 Z " fill="#285059" transform="translate(91,-0.0625)"/>
<path d="M0 0 C0.99 0 1.98 0 3 0 C2.125 4.875 2.125 4.875 1 6 C-6.52238806 6.23880597 -6.52238806 6.23880597 -9 5 C-9 4.01 -9 3.02 -9 2 C-6.36 2.33 -3.72 2.66 -1 3 C-0.67 2.01 -0.34 1.02 0 0 Z " fill="#070A14" transform="translate(222,193)"/>
<path d="M0 0 C1.32 0.66 2.64 1.32 4 2 C3.67 3.65 3.34 5.3 3 7 C1.35 6.67 -0.3 6.34 -2 6 C-1.125 1.125 -1.125 1.125 0 0 Z " fill="#D5D9E1" transform="translate(65,184)"/>
<path d="M0 0 C0.28875 0.598125 0.5775 1.19625 0.875 1.8125 C2.04742026 4.19327792 2.04742026 4.19327792 4 7 C3.01 8.485 3.01 8.485 2 10 C2 9.01 2 8.02 2 7 C-0.31 6.67 -2.62 6.34 -5 6 C-5 5.01 -5 4.02 -5 3 C-3.35 3 -1.7 3 0 3 C0 2.01 0 1.02 0 0 Z " fill="#282E3F" transform="translate(221,186)"/>
<path d="M0 0 C0.66 0.66 1.32 1.32 2 2 C1.8625607 6.94781498 -0.8263331 9.5008288 -4 13 C-4.75 11.375 -4.75 11.375 -5 9 C-3.125 5.9375 -3.125 5.9375 -1 3 C-0.67 2.01 -0.34 1.02 0 0 Z " fill="#CAD2DC" transform="translate(176,152)"/>
<path d="M0 0 C0.33 0 0.66 0 1 0 C1.28420056 3.74823003 1.52138363 7.49800197 1.75 11.25 C1.87181641 12.84521484 1.87181641 12.84521484 1.99609375 14.47265625 C2.05410156 15.49746094 2.11210937 16.52226562 2.171875 17.578125 C2.2347168 18.52075195 2.29755859 19.46337891 2.36230469 20.43457031 C1.89160242 23.76754834 0.53185615 24.88576961 -2 27 C-1.84152588 26.28432861 -1.68305176 25.56865723 -1.51977539 24.83129883 C-1.01543043 22.08405198 -0.79773833 19.4876077 -0.68359375 16.69921875 C-0.64169922 15.72275391 -0.59980469 14.74628906 -0.55664062 13.74023438 C-0.51732422 12.73283203 -0.47800781 11.72542969 -0.4375 10.6875 C-0.37272461 9.14739258 -0.37272461 9.14739258 -0.30664062 7.57617188 C-0.20093175 5.05090431 -0.09883532 2.52554438 0 0 Z " fill="#59B0D2" transform="translate(338,141)"/>
<path d="M0 0 C1.1157177 3.34715311 1.1807689 4.71071522 0 8 C-2.88909849 9.59660706 -4.69058796 10 -8 10 C-7.59007812 9.52949219 -7.18015625 9.05898437 -6.7578125 8.57421875 C-6.21898437 7.95160156 -5.68015625 7.32898438 -5.125 6.6875 C-4.59132813 6.07261719 -4.05765625 5.45773438 -3.5078125 4.82421875 C-1.8359553 2.86501788 -1.8359553 2.86501788 0 0 Z " fill="#5DDDD4" transform="translate(322,195)"/>
<path d="M0 0 C2.36574234 3.5486135 2.10865265 4.5764525 1.625 8.6875 C1.51414063 9.68136719 1.40328125 10.67523438 1.2890625 11.69921875 C1.19367188 12.45847656 1.09828125 13.21773438 1 14 C1.66 14 2.32 14 3 14 C3.33 15.32 3.66 16.64 4 18 C3.01 17.67 2.02 17.34 1 17 C0.67 18.32 0.34 19.64 0 21 C0 14.07 0 7.14 0 0 Z " fill="#11254B" transform="translate(233,309)"/>
<path d="M0 0 C3.375 2 3.375 2 6 4 C5.01 4.495 5.01 4.495 4 5 C2.32459336 4.35561283 0.65816784 3.68753301 -1 3 C-1.99 3 -2.98 3 -4 3 C-6.1875 2 -6.1875 2 -8 1 C-5.13391871 -0.43304064 -3.18699217 -0.30644155 0 0 Z " fill="#40AAC0" transform="translate(268,199)"/>
<path d="M0 0 C0.495 0.639375 0.99 1.27875 1.5 1.9375 C4.98806387 4.81515269 7.53461041 4.70230736 12 5 C11.67 5.66 11.34 6.32 11 7 C9.54257537 7.08096803 8.08387193 7.13917774 6.625 7.1875 C5.81289062 7.22230469 5.00078125 7.25710937 4.1640625 7.29296875 C3.44992188 7.19628906 2.73578125 7.09960938 2 7 C0 4 0 4 0 0 Z " fill="#B5BCCC" transform="translate(135,194)"/>
<path d="M0 0 C0 3.64717645 -0.84985628 6.54956883 -2 10 C-2.99 10.495 -2.99 10.495 -4 11 C-4.66 10.67 -5.32 10.34 -6 10 C-5.49477778 5.62140745 -2.82172778 3.18348776 0 0 Z " fill="#63CDDC" transform="translate(225,233)"/>
<path d="M0 0 C2.125 0.375 2.125 0.375 4 1 C3.34 1.37125 2.68 1.7425 2 2.125 C-0.29468448 3.89599371 -0.29468448 3.89599371 -0.5 7 C-0.29468448 10.10400629 -0.29468448 10.10400629 2 11.875 C2.66 12.24625 3.32 12.6175 4 13 C-0.875 12.125 -0.875 12.125 -2 11 C-2.16796875 9.00390625 -2.16796875 9.00390625 -2.1875 6.5625 C-2.20167969 5.75941406 -2.21585938 4.95632813 -2.23046875 4.12890625 C-2 2 -2 2 0 0 Z " fill="#121B35" transform="translate(199,313)"/>
<path d="M0 0 C1.17368337 3.52105012 0.53922519 4.80106225 -0.96484375 8.08203125 C-2.6913516 11.28095711 -4.81098178 14.10102992 -7 17 C-7.33 16.34 -7.66 15.68 -8 15 C-6.75874818 12.38838269 -5.4689476 9.89498214 -4.0625 7.375 C-3.48338867 6.31539062 -3.48338867 6.31539062 -2.89257812 5.234375 C-1.93551304 3.48566349 -0.96865969 1.74231568 0 0 Z " fill="#45B5C4" transform="translate(334,180)"/>
<path d="M0 0 C0 0.33 0 0.66 0 1 C-2.06081361 1.50690584 -4.12373526 2.00524619 -6.1875 2.5 C-7.91033203 2.91765625 -7.91033203 2.91765625 -9.66796875 3.34375 C-12.56818829 3.91495385 -15.06096385 4.13283779 -18 4 C-17.67 3.34 -17.34 2.68 -17 2 C-11.43592034 0.27321666 -5.79196155 -0.25182442 0 0 Z " fill="#5AA5A3" transform="translate(82,2)"/>
<path d="M0 0 C3.96 0 7.92 0 12 0 C12 0.33 12 0.66 12 1 C11.04287109 1.09087891 11.04287109 1.09087891 10.06640625 1.18359375 C9.24011719 1.26738281 8.41382813 1.35117187 7.5625 1.4375 C6.32693359 1.55931641 6.32693359 1.55931641 5.06640625 1.68359375 C3.01337975 1.78930815 3.01337975 1.78930815 2 3 C1.76924918 4.34747084 1.58846937 5.70377565 1.4375 7.0625 C1.293125 8.361875 1.14875 9.66125 1 11 C0.67 11 0.34 11 0 11 C0 7.37 0 3.74 0 0 Z " fill="#04113E" transform="translate(153,319)"/>
<path d="M0 0 C0.66 0.33 1.32 0.66 2 1 C1.67 2.32 1.34 3.64 1 5 C-1.64 5 -4.28 5 -7 5 C-4.88437775 2.67281553 -2.94982021 1.14186589 0 0 Z " fill="#6AB7DF" transform="translate(192,263)"/>
<path d="M0 0 C2.98704569 0.49784095 4.39324263 1.26216175 7 3 C5.906875 3.309375 4.81375 3.61875 3.6875 3.9375 C1.44592006 4.58337897 -0.7869351 5.2623117 -3 6 C-1.125 1.125 -1.125 1.125 0 0 Z " fill="#C2C5D2" transform="translate(142,261)"/>
<path d="M0 0 C0.99 0.33 1.98 0.66 3 1 C1.92456217 1.98783194 0.83926783 2.96493943 -0.25 3.9375 C-1.15492188 4.75541016 -1.15492188 4.75541016 -2.078125 5.58984375 C-4.08467305 7.06212799 -5.57002449 7.57529189 -8 8 C-5.33333333 5.33333333 -2.66666667 2.66666667 0 0 Z " fill="#3D69CB" transform="translate(212,253)"/>
<path d="M0 0 C0.33 0.66 0.66 1.32 1 2 C0.0625 4.125 0.0625 4.125 -1 6 C-2.65 5.67 -4.3 5.34 -6 5 C-6 4.01 -6 3.02 -6 2 C-4.02 1.34 -2.04 0.68 0 0 Z " fill="#D5DBE5" transform="translate(69,191)"/>
<path d="M0 0 C0.66 0.33 1.32 0.66 2 1 C-3.0940919 6.88183807 -3.0940919 6.88183807 -6.875 7.375 C-7.57625 7.25125 -8.2775 7.1275 -9 7 C-6.3765992 4.08511023 -3.28183606 2.11496102 0 0 Z " fill="#3E64C7" transform="translate(202,261)"/>
<path d="M0 0 C0.66 1.32 1.32 2.64 2 4 C0.68 5.32 -0.64 6.64 -2 8 C-2.66 6.68 -3.32 5.36 -4 4 C-2.68 2.68 -1.36 1.36 0 0 Z " fill="#54D1C8" transform="translate(247,204)"/>
<path d="M0 0 C0.66 0.33 1.32 0.66 2 1 C1.8125 3.375 1.8125 3.375 1 6 C-1.5625 7.3125 -1.5625 7.3125 -4 8 C-3.40072174 4.64404172 -2.15377564 2.62198774 0 0 Z " fill="#458DCF" transform="translate(231,231)"/>
<path d="M0 0 C3.93951596 1.84985967 6.78321875 4.07565341 10 7 C10 7.66 10 8.32 10 9 C6.78956118 7.61811547 4.95063635 6.07578097 2.75 3.375 C2.22921875 2.74335938 1.7084375 2.11171875 1.171875 1.4609375 C0.78515625 0.97882812 0.3984375 0.49671875 0 0 Z " fill="#172F3C" transform="translate(360,22)"/>
<path d="M0 0 C1.65 0 3.3 0 5 0 C5.33 1.32 5.66 2.64 6 4 C3.03 3.505 3.03 3.505 0 3 C0 2.01 0 1.02 0 0 Z " fill="#151F37" transform="translate(299,313)"/>
<path d="M0 0 C0 3.86695678 -1.41909971 6.5088452 -3 10 C-3.99 9.34 -4.98 8.68 -6 8 C-6 7.34 -6 6.68 -6 6 C-5.34 6 -4.68 6 -4 6 C-3.71125 5.38125 -3.4225 4.7625 -3.125 4.125 C-2 2 -2 2 0 0 Z " fill="#212D4A" transform="translate(353,311)"/>
<path d="M0 0 C0.8125 1.6875 0.8125 1.6875 1 4 C-1.4375 6.75 -1.4375 6.75 -4 9 C-3.46930939 5.17902761 -2.50298434 2.93828597 0 0 Z " fill="#5DD6E3" transform="translate(228,231)"/>
<path d="M0 0 C0.66 0.99 1.32 1.98 2 3 C0 5 0 5 -3.625 5.125 C-4.73875 5.08375 -5.8525 5.0425 -7 5 C-4.702779 3.25728062 -2.40133271 1.60088848 0 0 Z " fill="#0C1639" transform="translate(147,194)"/>
<path d="M0 0 C1.98 0.99 1.98 0.99 4 2 C4 4.31 4 6.62 4 9 C3.34 9 2.68 9 2 9 C1.34 6.03 0.68 3.06 0 0 Z " fill="#11192B" transform="translate(67,182)"/>
<path d="M0 0 C0.33 0 0.66 0 1 0 C1.04898437 0.63808594 1.09796875 1.27617187 1.1484375 1.93359375 C1.22320312 2.75988281 1.29796875 3.58617187 1.375 4.4375 C1.44460938 5.26121094 1.51421875 6.08492187 1.5859375 6.93359375 C1.72257812 7.61550781 1.85921875 8.29742187 2 9 C2.66 9.33 3.32 9.66 4 10 C2.68 10.99 1.36 11.98 0 13 C0 8.71 0 4.42 0 0 Z " fill="#1C4F63" transform="translate(339,150)"/>
<path d="M0 0 C0.33 0 0.66 0 1 0 C2.953125 5.859375 2.953125 5.859375 3 8 C1.68 9.32 0.36 10.64 -1 12 C-0.67 8.04 -0.34 4.08 0 0 Z " fill="#0B172E" transform="translate(243,198)"/>
<path d="M0 0 C1.32 0 2.64 0 4 0 C2.25 3.875 2.25 3.875 0 5 C-0.66 4.67 -1.32 4.34 -2 4 C-1.34 2.68 -0.68 1.36 0 0 Z " fill="#5BBDE5" transform="translate(207,253)"/>
<path d="M0 0 C0.33 1.32 0.66 2.64 1 4 C-1.97 6.475 -1.97 6.475 -5 9 C-5 7.35 -5 5.7 -5 4 C-4.0409375 3.8453125 -4.0409375 3.8453125 -3.0625 3.6875 C-2.381875 3.460625 -1.70125 3.23375 -1 3 C-0.67 2.01 -0.34 1.02 0 0 Z " fill="#102C4A" transform="translate(318,197)"/>
<path d="M0 0 C0.33 0.99 0.66 1.98 1 3 C-0.65 4.32 -2.3 5.64 -4 7 C-6.475 6.01 -6.475 6.01 -9 5 C-9 4.67 -9 4.34 -9 4 C-7.88625 3.896875 -6.7725 3.79375 -5.625 3.6875 C-4.42875 3.460625 -3.2325 3.23375 -2 3 C-1.34 2.01 -0.68 1.02 0 0 Z " fill="#C9CDD9" transform="translate(148,197)"/>
<path d="M0 0 C0.99 0.33 1.98 0.66 3 1 C2.67 1.99 2.34 2.98 2 4 C-0.0625 4.6875 -0.0625 4.6875 -2 5 C-2.33 4.01 -2.66 3.02 -3 2 C-2.01 1.34 -1.02 0.68 0 0 Z " fill="#172437" transform="translate(217,145)"/>
<path d="M0 0 C0.99 0 1.98 0 3 0 C2.67 1.98 2.34 3.96 2 6 C1.01 5.67 0.02 5.34 -1 5 C-0.67 3.35 -0.34 1.7 0 0 Z " fill="#253743" transform="translate(180,121)"/>
<path d="M0 0 C3.95820859 0.56545837 6.6659053 1.80902348 10 4 C7.29393021 5.35303489 5.8671629 4.7884698 3 4 C1 2 1 2 0 0 Z " fill="#1A4D52" transform="translate(189,92)"/>
<path d="M0 0 C1.98 0.99 1.98 0.99 4 2 C4 2.99 4 3.98 4 5 C3.34 4.67 2.68 4.34 2 4 C1.34 5.32 0.68 6.64 0 8 C0 5.36 0 2.72 0 0 Z " fill="#131A37" transform="translate(342,322)"/>
<path d="M0 0 C1.65 0 3.3 0 5 0 C5 0.99 5 1.98 5 3 C3.35 3.33 1.7 3.66 0 4 C0 2.68 0 1.36 0 0 Z " fill="#1B243B" transform="translate(243,313)"/>
<path d="M0 0 C0.99 0 1.98 0 3 0 C3 1.32 3 2.64 3 4 C1.02 4 -0.96 4 -3 4 C-1.6875 2 -1.6875 2 0 0 Z " fill="#E8E9ED" transform="translate(287,310)"/>
<path d="M0 0 C0.66 0.66 1.32 1.32 2 2 C-0.3125 4.0625 -0.3125 4.0625 -3 6 C-3.99 5.67 -4.98 5.34 -6 5 C-5.195625 4.360625 -4.39125 3.72125 -3.5625 3.0625 C-1.7249496 1.59396498 -1.7249496 1.59396498 0 0 Z " fill="#D0DDE4" transform="translate(89,104)"/>
<path d="M0 0 C1.32 0 2.64 0 4 0 C4 0.99 4 1.98 4 3 C2.02 3.33 0.04 3.66 -2 4 C-1.34 2.68 -0.68 1.36 0 0 Z " fill="#5FB9E9" transform="translate(194,262)"/>
<path d="M0 0 C0.66 0.33 1.32 0.66 2 1 C1.34 2.65 0.68 4.3 0 6 C-1.65 6 -3.3 6 -5 6 C-3.35 4.02 -1.7 2.04 0 0 Z " fill="#467FCF" transform="translate(218,247)"/>
<path d="M0 0 C0.99 0.33 1.98 0.66 3 1 C1.70700306 3.88437779 0.34058637 5.87219421 -2 8 C-2 6.35 -2 4.7 -2 3 C-1.34 3 -0.68 3 0 3 C0 2.01 0 1.02 0 0 Z " fill="#C0D5E2" transform="translate(220,234)"/>
<path d="M0 0 C0.33 1.32 0.66 2.64 1 4 C-0.32 4.33 -1.64 4.66 -3 5 C-3.33 4.01 -3.66 3.02 -4 2 C-2.68 1.34 -1.36 0.68 0 0 Z " fill="#111727" transform="translate(69,232)"/>
<path d="M0 0 C2.0625 0.4375 2.0625 0.4375 4 1 C3.67 2.32 3.34 3.64 3 5 C2.01 4.67 1.02 4.34 0 4 C-0.33 3.01 -0.66 2.02 -1 1 C-0.67 0.67 -0.34 0.34 0 0 Z " fill="#D3D9E4" transform="translate(217,184)"/>
<path d="M0 0 C1.5625 1.25 1.5625 1.25 3 3 C2.6875 5.1875 2.6875 5.1875 2 7 C0.4375 5.75 0.4375 5.75 -1 4 C-0.6875 1.8125 -0.6875 1.8125 0 0 Z " fill="#0A1D2F" transform="translate(103,120)"/>
</svg>
